<?xml version="1.0" encoding="UTF-8" standalone="no"?>
<!DOCTYPE svg PUBLIC "-//W3C//DTD SVG 1.1//EN" "http://www.w3.org/Graphics/SVG/1.1/DTD/svg11.dtd">
<!-- Created with Vectornator (http://vectornator.io/) -->
<svg height="100%" stroke-miterlimit="10" style="fill-rule:nonzero;clip-rule:evenodd;stroke-linecap:round;stroke-linejoin:round;" version="1.1" viewBox="0 0 4320 4320" width="100%" xml:space="preserve" xmlns="http://www.w3.org/2000/svg" xmlns:vectornator="http://vectornator.io" xmlns:xlink="http://www.w3.org/1999/xlink">
<defs>
<radialGradient cx="0" cy="0" gradientTransform="matrix(1241.21 0 0 1241.21 2160.98 1729.55)" gradientUnits="userSpaceOnUse" id="RadialGradient" r="1">
<stop offset="0" stop-color="#71cc58"/>
<stop offset="1" stop-color="#28882f"/>
</radialGradient>
</defs>
<g id="Eld" vectornator:layerName="Eld">
<g opacity="1" vectornator:layerName="Group 2">
<g opacity="1" vectornator:layerName="Bonfire">
<path d="M1045.47 3482.21C967.433 3482.21 894.97 3446.66 864.312 3392.3C822.507 3317.02 869.886 3231.29 970.22 3199.93L3199.85 2501.56C3224.93 2493.19 3250.02 2491.1 3275.1 2491.1C3353.14 2491.1 3425.6 2526.65 3456.26 2581.01C3475.77 2616.56 3475.77 2656.29 3456.26 2693.92C3436.75 2729.47 3397.73 2758.74 3350.35 2773.38L1120.72 3471.75C1095.64 3478.02 1070.55 3482.21 1045.47 3482.21Z" fill="#542807" fill-rule="nonzero" opacity="1" stroke="#000000" stroke-linecap="round" stroke-linejoin="round" stroke-width="23" vectornator:layerName="path"/>
<path d="M1028.75 3193.66C930.236 3193.66 850.377 3254.51 850.377 3329.57C850.377 3404.63 930.236 3465.48 1028.75 3465.48C1127.26 3465.48 1207.12 3404.63 1207.12 3329.57C1207.12 3254.51 1127.26 3193.66 1028.75 3193.66Z" fill="#e8d8c4" fill-rule="nonzero" opacity="1" stroke="#000000" stroke-linecap="round" stroke-linejoin="round" stroke-width="23" vectornator:layerName="path"/>
<path d="M3275.1 3482.21C3250.02 3482.21 3224.93 3478.02 3199.85 3471.75L970.22 2771.29C869.886 2739.92 825.294 2654.2 864.312 2578.92C894.97 2524.56 964.645 2489.01 1045.47 2489.01C1070.55 2489.01 1095.64 2493.19 1120.72 2499.47L3350.35 3197.84C3397.73 3212.48 3436.75 3241.75 3456.26 3277.29C3475.77 3312.84 3475.77 3352.57 3456.26 3390.21C3425.6 3446.66 3353.14 3482.21 3275.1 3482.21Z" fill="#733608" fill-rule="nonzero" opacity="1" stroke="#000000" stroke-linecap="round" stroke-linejoin="round" stroke-width="23" vectornator:layerName="path"/>
<path d="M3291.82 3210.38C3193.31 3210.38 3113.45 3271.23 3113.45 3346.3C3113.45 3421.36 3193.31 3482.21 3291.82 3482.21C3390.33 3482.21 3470.19 3421.36 3470.19 3346.3C3470.19 3271.23 3390.33 3210.38 3291.82 3210.38Z" fill="#e8d8c4" fill-rule="nonzero" opacity="1" stroke="#000000" stroke-linecap="round" stroke-linejoin="round" stroke-width="23" vectornator:layerName="path"/>
<path d="M1988.52 3524.2C1979.45 3513.57 1975.24 3502.09 1973.45 3490.19L1980.53 2402.55C1980.67 2353.64 2064.08 2317.22 2165.59 2318.35C2239.79 2320.21 2306.26 2342.45 2335.48 2376.68C2344.55 2387.31 2348.77 2398.79 2350.55 2410.69L2345.9 3497.9C2346.04 3520.96 2326.16 3543.47 2291.94 3559.01C2257.72 3574.54 2211.6 3582.67 2160.84 3582.1C2084.21 3580.67 2016.74 3557.25 1988.52 3524.2Z" fill="#874107" fill-rule="nonzero" opacity="1" stroke="#000000" stroke-linecap="round" stroke-linejoin="round" stroke-width="23" vectornator:layerName="path 1"/>
<path d="M2163.97 3368.41C2066.54 3368.41 1987.56 3416.25 1987.56 3475.27C1987.56 3534.29 2066.54 3582.13 2163.97 3582.13C2261.39 3582.13 2340.37 3534.29 2340.37 3475.27C2340.37 3416.25 2261.39 3368.41 2163.97 3368.41Z" fill="#e8d8c4" fill-rule="nonzero" opacity="1" stroke="#000000" stroke-linecap="round" stroke-linejoin="round" stroke-width="23" vectornator:layerName="path 2"/>
</g>
<g opacity="1" vectornator:layerName="Fire">
<path d="M1844.37 1472.03C1947.21 1179.86 1927.17 737.868 1927.17 737.868C1927.17 737.868 2200.87 862.917 2389.67 1206.95C2567.39 1530.23 2399.69 2011.99 2399.69 2011.99C2530.48 1869.08 2578.99 1726.16 2583.21 1554.44C2730.35 1810.87 2843.73 2104.19 2843.73 2401.55C2843.73 2769.2 2537.86 3066.56 2160.26 3067.13C1782.14 3066.56 1476.27 2768.63 1476.27 2400.97C1476.27 2043.11 1723.08 1816.64 1844.37 1472.03Z" fill="#e17a2d" fill-rule="nonzero" opacity="1" stroke="#000000" stroke-linecap="round" stroke-linejoin="round" stroke-width="23" vectornator:layerName="path"/>
<path d="M1978.85 2097.85C2035.28 1920.36 2024.2 1652.98 2024.2 1652.98C2024.2 1652.98 2565.81 2103.62 2527.31 2662.02C2512.02 2884.46 2359.61 3065.4 2151.83 3065.4C1944.57 3065.4 1776.34 2884.46 1776.34 2662.02C1776.34 2444.77 1911.87 2307.04 1978.85 2097.85Z" fill="#f4e028" fill-rule="nonzero" opacity="0.8" stroke="none" vectornator:layerName="path"/>
<path d="M2042.66 2444.77C2078.52 2332.39 2071.67 2162.97 2071.67 2162.97C2071.67 2162.97 2414.98 2448.22 2390.2 2802.05C2380.18 2942.66 2283.67 3057.91 2152.35 3057.91C2021.04 3057.91 1914.51 2943.23 1914.51 2802.05C1914.51 2664.32 2000.47 2577.31 2042.66 2444.77Z" fill="#ffffff" fill-rule="nonzero" opacity="0.8" stroke="none" vectornator:layerName="path"/>
</g>
</g>
</g>
<g id="Layer-1-copy" vectornator:layerName="Layer 1 copy" visibility="hidden">
<g opacity="1" vectornator:layerName="Fence"/>
<g opacity="1" vectornator:layerName="Group 1">
<g opacity="1" vectornator:layerName="Leafless Tree 3">
<path d="M2757.47 1664.16C2757.43 1664.16 2757.37 1664.16 2757.34 1664.16L1573.47 1643.54L1569.21 1888.23L2753.06 1908.85C2753.11 1908.85 2753.17 1908.85 2753.23 1908.86L2758.32 1908.94L2758.34 1907.92C2771.86 1905.67 2785.22 1894.58 2795.84 1873.56C2819.86 1826.05 2821.22 1748.14 2798.86 1700.32C2788.97 1679.14 2775.99 1667.82 2762.56 1665.27L2762.58 1664.27L2757.47 1664.18L2757.47 1664.16Z" fill="#663109" fill-rule="nonzero" opacity="1" stroke="#000000" stroke-linecap="round" stroke-linejoin="round" stroke-width="26" vectornator:layerName="path"/>
<path d="M1564.01 1823.84L1563.02 1880.61L2746.87 1901.22C2746.92 1901.22 2746.98 1901.23 2747.05 1901.23L2752.13 1901.31L2752.15 1900.29C2765.67 1898.04 2779.03 1886.95 2789.66 1865.93C2792.87 1859.59 2795.6 1852.61 2798 1845.33L1564.01 1823.84Z" fill="#874107" fill-rule="nonzero" opacity="1" stroke="none" vectornator:layerName="path"/>
<path d="M1611.82 1852.92C1587.81 1900.4 1549.98 1899.94 1527.76 1851.9C1505.52 1803.85 1506.88 1725.9 1530.77 1678.65C1554.66 1631.41 1592.5 1631.88 1614.83 1679.68C1637.18 1727.51 1635.83 1805.43 1611.82 1852.92Z" fill="#ea9053" fill-rule="nonzero" opacity="1" stroke="#000000" stroke-linecap="round" stroke-linejoin="round" stroke-width="26" vectornator:layerName="path"/>
<path d="M1530.76 1678.65C1554.65 1631.41 1592.48 1631.88 1614.82 1679.68C1637.17 1727.51 1635.82 1805.42 1611.81 1852.92" fill="#d16f26" fill-rule="nonzero" opacity="1" stroke="#000000" stroke-linecap="round" stroke-linejoin="round" stroke-width="26" vectornator:layerName="path"/>
</g>
<g opacity="1" vectornator:layerName="Leafless Tree 1">
<path d="M1384.58 1712.62C1384.55 1712.64 1384.51 1712.67 1384.49 1712.68L567.607 2212.28L695.682 2421.69L1512.55 1922.1C1512.59 1922.08 1512.63 1922.06 1512.67 1922.03L1516.18 1919.88L1515.64 1919C1523.64 1911.19 1526.8 1895.95 1522.78 1873.48C1513.71 1822.69 1472.93 1756.01 1432.11 1725.21C1414.04 1711.57 1399.14 1707.63 1388.64 1711.34L1388.11 1710.48L1384.59 1712.64L1384.58 1712.62Z" fill="#663109" fill-rule="nonzero" opacity="1" stroke="#000000" stroke-linecap="round" stroke-linejoin="round" stroke-width="26" vectornator:layerName="path"/>
<path d="M657.676 2369.34L687.387 2417.92L1504.26 1918.33C1504.29 1918.31 1504.33 1918.29 1504.38 1918.26L1507.89 1916.11L1507.35 1915.23C1515.35 1907.42 1518.51 1892.18 1514.49 1869.71C1513.28 1862.93 1511.41 1855.81 1509.14 1848.59L657.676 2369.34Z" fill="#874107" fill-rule="nonzero" opacity="1" stroke="none" vectornator:layerName="path"/>
<path d="M705.786 2373.13C714.858 2423.89 688.862 2440.02 648.016 2408.97C607.163 2377.93 566.363 2311.22 557.339 2260.71C548.308 2210.2 574.318 2194.08 615.109 2224.87C655.921 2255.67 696.708 2322.36 705.786 2373.13Z" fill="#ea9053" fill-rule="nonzero" opacity="1" stroke="#000000" stroke-linecap="round" stroke-linejoin="round" stroke-width="26" vectornator:layerName="path"/>
<path d="M557.331 2260.71C548.3 2210.21 574.31 2194.09 615.101 2224.87C655.914 2255.68 696.693 2322.35 705.778 2373.14" fill="#d16f26" fill-rule="nonzero" opacity="1" stroke="#000000" stroke-linecap="round" stroke-linejoin="round" stroke-width="26" vectornator:layerName="path"/>
</g>
<g opacity="1" vectornator:layerName="Group 1">
<g opacity="1" vectornator:layerName="Bonfire">
<path d="M1631.51 2520.74C1600.08 2520.74 1570.9 2510.59 1558.55 2495.06C1541.71 2473.57 1560.79 2449.1 1601.2 2440.14L2499.2 2240.74C2509.31 2238.35 2519.41 2237.76 2529.51 2237.76C2560.94 2237.76 2590.13 2247.91 2602.47 2263.43C2610.33 2273.58 2610.33 2284.92 2602.47 2295.67C2594.62 2305.82 2578.9 2314.17 2559.82 2318.35L1661.82 2517.75C1651.72 2519.54 1641.61 2520.74 1631.51 2520.74Z" fill="#542807" fill-rule="nonzero" opacity="1" stroke="#000000" stroke-linecap="round" stroke-linejoin="round" stroke-width="23" vectornator:layerName="path"/>
<path d="M1624.78 2438.35C1585.1 2438.35 1552.94 2455.72 1552.94 2477.15C1552.94 2498.59 1585.1 2515.96 1624.78 2515.96C1664.45 2515.96 1696.62 2498.59 1696.62 2477.15C1696.62 2455.72 1664.45 2438.35 1624.78 2438.35Z" fill="#e8d8c4" fill-rule="nonzero" opacity="1" stroke="#000000" stroke-linecap="round" stroke-linejoin="round" stroke-width="23" vectornator:layerName="path"/>
<path d="M2529.51 2520.74C2519.41 2520.74 2509.31 2519.54 2499.2 2517.75L1601.2 2317.76C1560.79 2308.8 1542.83 2284.32 1558.55 2262.83C1570.9 2247.31 1598.96 2237.16 1631.51 2237.16C1641.61 2237.16 1651.72 2238.35 1661.82 2240.15L2559.82 2439.54C2578.9 2443.72 2594.62 2452.08 2602.47 2462.23C2610.33 2472.38 2610.33 2483.72 2602.47 2494.47C2590.13 2510.59 2560.94 2520.74 2529.51 2520.74Z" fill="#733608" fill-rule="nonzero" opacity="1" stroke="#000000" stroke-linecap="round" stroke-linejoin="round" stroke-width="23" vectornator:layerName="path"/>
<path d="M2536.25 2443.13C2496.57 2443.13 2464.41 2460.5 2464.41 2481.93C2464.41 2503.36 2496.57 2520.74 2536.25 2520.74C2575.92 2520.74 2608.09 2503.36 2608.09 2481.93C2608.09 2460.5 2575.92 2443.13 2536.25 2443.13Z" fill="#e8d8c4" fill-rule="nonzero" opacity="1" stroke="#000000" stroke-linecap="round" stroke-linejoin="round" stroke-width="23" vectornator:layerName="path"/>
<path d="M2011.33 2532.72C2007.68 2529.69 2005.98 2526.41 2005.26 2523.01L2008.11 2212.48C2008.17 2198.51 2041.76 2188.11 2082.65 2188.43C2112.53 2188.97 2139.3 2195.32 2151.07 2205.09C2154.73 2208.12 2156.42 2211.4 2157.14 2214.8L2155.27 2525.22C2155.32 2531.8 2147.32 2538.23 2133.54 2542.66C2119.76 2547.1 2101.18 2549.42 2080.74 2549.26C2049.87 2548.85 2022.7 2542.16 2011.33 2532.72Z" fill="#874107" fill-rule="nonzero" opacity="1" stroke="#000000" stroke-linecap="round" stroke-linejoin="round" stroke-width="23" vectornator:layerName="path 1"/>
<path d="M2081.99 2488.24C2042.76 2488.24 2010.95 2501.9 2010.95 2518.76C2010.95 2535.61 2042.76 2549.27 2081.99 2549.27C2121.23 2549.27 2153.04 2535.61 2153.04 2518.76C2153.04 2501.9 2121.23 2488.24 2081.99 2488.24Z" fill="#e8d8c4" fill-rule="nonzero" opacity="1" stroke="#000000" stroke-linecap="round" stroke-linejoin="round" stroke-width="23" vectornator:layerName="path 2"/>
</g>
<g opacity="1" vectornator:layerName="Fire">
<path d="M1910.13 1518.13C1968.47 1352.36 1957.1 1101.58 1957.1 1101.58C1957.1 1101.58 2112.4 1172.53 2219.52 1367.73C2320.35 1551.15 2225.2 1824.49 2225.2 1824.49C2299.41 1743.4 2326.93 1662.32 2329.33 1564.88C2412.81 1710.38 2477.14 1876.8 2477.14 2045.51C2477.14 2254.11 2303.59 2422.82 2089.36 2423.15C1874.82 2422.82 1701.27 2253.78 1701.27 2045.18C1701.27 1842.14 1841.31 1713.65 1910.13 1518.13Z" fill="#e17a2d" fill-rule="nonzero" opacity="1" stroke="#000000" stroke-linecap="round" stroke-linejoin="round" stroke-width="23" vectornator:layerName="path"/>
<path d="M1986.43 1873.2C2018.44 1772.5 2012.16 1620.79 2012.16 1620.79C2012.16 1620.79 2319.45 1876.47 2297.61 2193.3C2288.93 2319.5 2202.46 2422.17 2084.57 2422.17C1966.98 2422.17 1871.53 2319.5 1871.53 2193.3C1871.53 2070.03 1948.43 1991.89 1986.43 1873.2Z" fill="#f4e028" fill-rule="nonzero" opacity="0.8" stroke="none" vectornator:layerName="path"/>
<path d="M2022.63 2070.03C2042.98 2006.28 2039.09 1910.15 2039.09 1910.15C2039.09 1910.15 2233.88 2071.99 2219.81 2272.75C2214.13 2352.52 2159.37 2417.92 2084.87 2417.92C2010.36 2417.92 1949.92 2352.85 1949.92 2272.75C1949.92 2194.6 1998.69 2145.23 2022.63 2070.03Z" fill="#ffffff" fill-rule="nonzero" opacity="0.8" stroke="none" vectornator:layerName="path"/>
</g>
</g>
<g opacity="1" vectornator:layerName="Leafless Tree 2">
<path d="M2846.4 1892.2C2846.43 1892.22 2846.46 1892.24 2846.48 1892.26L3586.14 2456.1L3742.22 2251.36L3002.57 1687.53C3002.53 1687.51 3002.5 1687.48 3002.46 1687.45L2999.28 1685.03L2998.62 1685.88C2988.62 1681.55 2973.18 1684.75 2953.25 1697.6C2908.2 1726.64 2858.51 1791.83 2842.75 1842.55C2835.76 1865.01 2836.92 1880.56 2843.85 1888.92L2843.22 1889.75L2846.41 1892.19L2846.4 1892.2Z" fill="#663109" fill-rule="nonzero" opacity="1" stroke="#000000" stroke-linecap="round" stroke-linejoin="round" stroke-width="26" vectornator:layerName="path"/>
<path d="M2865.45 1819.84C2865.45 1819.84 2825.86 1868.09 2860.54 1895.48C2900.33 1926.89 3573.12 2437.58 3573.12 2437.58C3573.15 2437.61 3573.19 2437.63 3573.23 2437.67L3576.41 2440.09L3577.06 2439.23C3587.07 2443.57 3602.51 2440.37 3622.44 2427.52C3628.45 2423.64 3634.57 2419.01 3640.65 2413.97L2865.45 1819.84Z" fill="#874107" fill-rule="nonzero" opacity="1" stroke="none" vectornator:layerName="path"/>
<path d="M3653.91 2242.04C3709.55 2214.83 3753.08 2238.75 3750.64 2295.21C3748.21 2351.68 3700.93 2420.02 3645.56 2447.1C3590.19 2474.18 3546.66 2450.24 3548.82 2393.93C3550.99 2337.59 3598.26 2269.27 3653.91 2242.04Z" fill="#ea9053" fill-rule="nonzero" opacity="1" stroke="#000000" stroke-linecap="round" stroke-linejoin="round" stroke-width="26" vectornator:layerName="path"/>
<path d="M3629.26 2450.01C3568.11 2470.25 3546.17 2433.34 3554.89 2377.55C3563.62 2321.73 3616.91 2252.39 3678.39 2232.04" fill="#d16f26" fill-rule="nonzero" opacity="1" stroke="#000000" stroke-linecap="round" stroke-linejoin="round" stroke-width="26" vectornator:layerName="path"/>
</g>
<g opacity="1" vectornator:layerName="Leafless Tree">
<path d="M3547.47 2427.19C3547.42 2427.2 3547.36 2427.21 3547.32 2427.21L2202.84 2640.64L2266.3 3040.4L3610.76 2826.98C3610.82 2826.97 3610.88 2826.96 3610.96 2826.94L3616.73 2826.03L3616.47 2824.35C3631.13 2817.86 3643.14 2797 3649.29 2760.52C3663.2 2678.07 3642.99 2550.78 3604.36 2477.49C3587.27 2445.03 3569.43 2429.28 3553.54 2427.92L3553.28 2426.29L3547.48 2427.21L3547.47 2427.19Z" fill="#663109" fill-rule="nonzero" opacity="1" stroke="#000000" stroke-linecap="round" stroke-linejoin="round" stroke-width="26" vectornator:layerName="path"/>
<path d="M2304.63 2973.95C2290.73 3056.35 2247.83 3063.5 2209.29 2989.81C2170.74 2916.13 2150.52 2788.78 2164.36 2706.78C2178.18 2624.78 2221.1 2617.66 2259.7 2690.92C2298.32 2764.22 2318.53 2891.52 2304.63 2973.95Z" fill="#ea9053" fill-rule="nonzero" opacity="1" stroke="#000000" stroke-linecap="round" stroke-linejoin="round" stroke-width="26" vectornator:layerName="path"/>
<path d="M2164.35 2706.78C2178.17 2624.78 2221.09 2617.66 2259.69 2690.92C2298.31 2764.22 2318.51 2891.5 2304.62 2973.95" fill="#d16f26" fill-rule="nonzero" opacity="1" stroke="#000000" stroke-linecap="round" stroke-linejoin="round" stroke-width="26" vectornator:layerName="path"/>
</g>
<g opacity="1" vectornator:layerName="Leafless Tree 4">
<path d="M726.552 2724.85C726.598 2724.86 726.655 2724.87 726.689 2724.88L1954.81 3039.59L2044.35 2690.17L816.252 2375.47C816.194 2375.45 816.137 2375.44 816.069 2375.42L810.793 2374.07L810.418 2375.53C795.525 2375.5 777.733 2388.16 759.334 2415.71C717.75 2477.96 689.24 2589.21 695.94 2663.1C698.897 2695.81 708.5 2715.15 721.625 2722.04L721.259 2723.47L726.557 2724.83L726.552 2724.85Z" fill="#663109" fill-rule="nonzero" opacity="1" stroke="#000000" stroke-linecap="round" stroke-linejoin="round" stroke-width="26" vectornator:layerName="path"/>
<path d="M1976.53 2727.63C2024.21 2666.99 2073.5 2679.32 2086.07 2755.04C2098.65 2830.77 2070.13 2942.09 2022.68 3002.43C1975.24 3062.79 1925.94 3050.43 1913.13 2975.03C1900.33 2899.58 1928.84 2788.3 1976.53 2727.63Z" fill="#ea9053" fill-rule="nonzero" opacity="1" stroke="#000000" stroke-linecap="round" stroke-linejoin="round" stroke-width="26" vectornator:layerName="path"/>
<path d="M2022.69 3002.44C1975.25 3062.79 1925.95 3050.44 1913.15 2975.03C1900.34 2899.58 1928.85 2788.32 1976.54 2727.64" fill="#d16f26" fill-rule="nonzero" opacity="1" stroke="#000000" stroke-linecap="round" stroke-linejoin="round" stroke-width="26" vectornator:layerName="path"/>
</g>
</g>
</g>
<g id="Layer-1-copy-copy" vectornator:layerName="Layer 1 copy copy" visibility="hidden">
<g opacity="1" vectornator:layerName="Fence"/>
<g opacity="1" vectornator:layerName="Log Cabin">
<path d="M3935.88 1195.89L2189.84 1185.54L443.799 1195.89L443.799 2655.89L3935.88 2655.89L3935.88 1195.89Z" fill="#874107" fill-rule="nonzero" opacity="1" stroke="#000000" stroke-linecap="round" stroke-linejoin="round" stroke-width="26" vectornator:layerName="path"/>
<path d="M443.799 2217.89L3935.88 2217.89L3935.88 2363.89L443.799 2363.89L443.799 2217.89ZM443.799 1852.89L3935.88 1852.89L3935.88 1998.89L443.799 1998.89L443.799 1852.89ZM443.799 1487.89L3935.88 1487.89L3935.88 1633.89L443.799 1633.89L443.799 1487.89ZM443.799 1122.89L3935.88 1122.89L3935.88 1268.89L443.799 1268.89L443.799 1122.89Z" fill="#663109" fill-rule="nonzero" opacity="1" stroke="#000000" stroke-linecap="round" stroke-linejoin="round" stroke-width="26" vectornator:layerName="path"/>
<path d="M2138.4 1265.34L3986.99 1268.89L4094.46 1341.89L4094.46 975.314L2160 968.922L225.544 975.314L225.544 1341.89L333.014 1268.89L2138.4 1265.34Z" fill="#663109" fill-rule="nonzero" opacity="1" stroke="#000000" stroke-linecap="round" stroke-linejoin="round" stroke-width="26" vectornator:layerName="path"/>
<path d="M408.043 2290.89C307.252 2290.89 225.544 2372.59 225.544 2473.39C225.544 2574.18 307.252 2655.89 408.043 2655.89C508.835 2655.89 590.543 2574.18 590.543 2473.39C590.543 2372.59 508.835 2290.89 408.043 2290.89ZM408.043 1925.89C307.252 1925.89 225.544 2007.6 225.544 2108.39C225.544 2209.18 307.252 2290.89 408.043 2290.89C508.835 2290.89 590.543 2209.18 590.543 2108.39C590.543 2007.6 508.835 1925.89 408.043 1925.89ZM408.043 1560.89C307.252 1560.89 225.544 1642.6 225.544 1743.39C225.544 1844.18 307.252 1925.89 408.043 1925.89C508.835 1925.89 590.543 1844.18 590.543 1743.39C590.543 1642.6 508.835 1560.89 408.043 1560.89ZM408.043 1195.89C307.252 1195.89 225.544 1277.6 225.544 1378.39C225.544 1479.18 307.252 1560.89 408.043 1560.89C508.835 1560.89 590.543 1479.18 590.543 1378.39C590.543 1277.6 508.835 1195.89 408.043 1195.89Z" fill="#663109" fill-rule="nonzero" opacity="1" stroke="#000000" stroke-linecap="round" stroke-linejoin="round" stroke-width="26" vectornator:layerName="path"/>
<path d="M3911.96 2290.89C3811.16 2290.89 3729.46 2372.59 3729.46 2473.39C3729.46 2574.18 3811.16 2655.89 3911.96 2655.89C4012.75 2655.89 4094.46 2574.18 4094.46 2473.39C4094.46 2372.59 4012.75 2290.89 3911.96 2290.89ZM3911.96 1925.89C3811.16 1925.89 3729.46 2007.6 3729.46 2108.39C3729.46 2209.18 3811.16 2290.89 3911.96 2290.89C4012.75 2290.89 4094.46 2209.18 4094.46 2108.39C4094.46 2007.6 4012.75 1925.89 3911.96 1925.89ZM3911.96 1560.89C3811.16 1560.89 3729.46 1642.6 3729.46 1743.39C3729.46 1844.18 3811.16 1925.89 3911.96 1925.89C4012.75 1925.89 4094.46 1844.18 4094.46 1743.39C4094.46 1642.6 4012.75 1560.89 3911.96 1560.89ZM3911.96 1195.89C3811.16 1195.89 3729.46 1277.6 3729.46 1378.39C3729.46 1479.18 3811.16 1560.89 3911.96 1560.89C4012.75 1560.89 4094.46 1479.18 4094.46 1378.39C4094.46 1277.6 4012.75 1195.89 3911.96 1195.89Z" fill="#663109" fill-rule="nonzero" opacity="1" stroke="#000000" stroke-linecap="round" stroke-linejoin="round" stroke-width="26" vectornator:layerName="path 1"/>
<path d="M921.696 1489.09L3457.99 1489.09L3457.99 2368.88L921.696 2368.88L921.696 1489.09Z" fill="#2d211c" fill-rule="nonzero" opacity="1" stroke="#000000" stroke-linecap="round" stroke-linejoin="round" stroke-width="26" vectornator:layerName="path"/>
</g>
<g opacity="1" vectornator:layerName="Group 2">
<g opacity="1" vectornator:layerName="Bonfire">
<path d="M1426.62 3491.7C1375.27 3491.7 1327.59 3471.75 1307.41 3441.25C1279.91 3399.01 1311.08 3350.9 1377.1 3333.3L2844.24 2941.4C2860.74 2936.7 2877.25 2935.53 2893.75 2935.53C2945.1 2935.53 2992.79 2955.48 3012.96 2985.98C3025.8 3005.93 3025.8 3028.22 3012.96 3049.35C3000.12 3069.29 2974.45 3085.72 2943.27 3093.93L1476.14 3485.83C1459.63 3489.35 1443.12 3491.7 1426.62 3491.7Z" fill="#542807" fill-rule="nonzero" opacity="1" stroke="#000000" stroke-linecap="round" stroke-linejoin="round" stroke-width="23" vectornator:layerName="path"/>
<path d="M1415.62 3329.78C1350.79 3329.78 1298.24 3363.92 1298.24 3406.05C1298.24 3448.17 1350.79 3482.31 1415.62 3482.31C1480.44 3482.31 1532.99 3448.17 1532.99 3406.05C1532.99 3363.92 1480.44 3329.78 1415.62 3329.78Z" fill="#e8d8c4" fill-rule="nonzero" opacity="1" stroke="#000000" stroke-linecap="round" stroke-linejoin="round" stroke-width="23" vectornator:layerName="path"/>
<path d="M2893.75 3491.7C2877.25 3491.7 2860.74 3489.35 2844.24 3485.83L1377.1 3092.76C1311.08 3075.16 1281.74 3027.05 1307.41 2984.81C1327.59 2954.3 1373.44 2934.36 1426.62 2934.36C1443.12 2934.36 1459.63 2936.7 1476.14 2940.22L2943.27 3332.12C2974.45 3340.34 3000.12 3356.76 3012.96 3376.71C3025.8 3396.66 3025.8 3418.95 3012.96 3440.07C2992.79 3471.75 2945.1 3491.7 2893.75 3491.7Z" fill="#733608" fill-rule="nonzero" opacity="1" stroke="#000000" stroke-linecap="round" stroke-linejoin="round" stroke-width="23" vectornator:layerName="path"/>
<path d="M2904.76 3339.16C2839.94 3339.16 2787.39 3373.31 2787.39 3415.43C2787.39 3457.55 2839.94 3491.7 2904.76 3491.7C2969.58 3491.7 3022.13 3457.55 3022.13 3415.43C3022.13 3373.31 2969.58 3339.16 2904.76 3339.16Z" fill="#e8d8c4" fill-rule="nonzero" opacity="1" stroke="#000000" stroke-linecap="round" stroke-linejoin="round" stroke-width="23" vectornator:layerName="path"/>
<path d="M2047.16 3515.26C2041.2 3509.3 2038.42 3502.86 2037.25 3496.18L2041.91 2885.84C2042 2858.39 2096.88 2837.95 2163.68 2838.59C2212.51 2839.63 2256.24 2852.11 2275.47 2871.32C2281.44 2877.28 2284.21 2883.73 2285.39 2890.41L2282.33 3500.51C2282.42 3513.45 2269.34 3526.08 2246.82 3534.8C2224.3 3543.52 2193.95 3548.08 2160.56 3547.76C2110.13 3546.95 2065.73 3533.81 2047.16 3515.26Z" fill="#874107" fill-rule="nonzero" opacity="1" stroke="#000000" stroke-linecap="round" stroke-linejoin="round" stroke-width="23" vectornator:layerName="path 1"/>
<path d="M2162.61 3427.84C2098.5 3427.84 2046.53 3454.69 2046.53 3487.81C2046.53 3520.93 2098.5 3547.78 2162.61 3547.78C2226.72 3547.78 2278.69 3520.93 2278.69 3487.81C2278.69 3454.69 2226.72 3427.84 2162.61 3427.84Z" fill="#e8d8c4" fill-rule="nonzero" opacity="1" stroke="#000000" stroke-linecap="round" stroke-linejoin="round" stroke-width="23" vectornator:layerName="path 2"/>
</g>
<g opacity="1" vectornator:layerName="Fire">
<path d="M1952.31 2247.09C2019.98 2054.84 2006.79 1764 2006.79 1764C2006.79 1764 2186.89 1846.28 2311.13 2072.66C2428.07 2285.38 2317.72 2602.39 2317.72 2602.39C2403.78 2508.35 2435.71 2414.31 2438.48 2301.31C2535.3 2470.05 2609.91 2663.06 2609.91 2858.72C2609.91 3100.65 2408.64 3296.31 2160.17 3296.69C1911.36 3296.31 1710.09 3100.27 1710.09 2858.35C1710.09 2622.87 1872.5 2473.84 1952.31 2247.09Z" fill="#e17a2d" fill-rule="nonzero" opacity="1" stroke="#000000" stroke-linecap="round" stroke-linejoin="round" stroke-width="23" vectornator:layerName="path"/>
<path d="M2040.8 2658.89C2077.93 2542.1 2070.64 2366.15 2070.64 2366.15C2070.64 2366.15 2427.03 2662.68 2401.7 3030.12C2391.63 3176.49 2291.35 3295.55 2154.62 3295.55C2018.24 3295.55 1907.54 3176.49 1907.54 3030.12C1907.54 2887.16 1996.73 2796.54 2040.8 2658.89Z" fill="#f4e028" fill-rule="nonzero" opacity="0.8" stroke="none" vectornator:layerName="path"/>
<path d="M2082.79 2887.16C2106.39 2813.22 2101.87 2701.74 2101.87 2701.74C2101.87 2701.74 2327.78 2889.44 2311.47 3122.26C2304.88 3214.79 2241.38 3290.62 2154.97 3290.62C2068.56 3290.62 1998.46 3215.17 1998.46 3122.26C1998.46 3031.64 2055.03 2974.38 2082.79 2887.16Z" fill="#ffffff" fill-rule="nonzero" opacity="0.8" stroke="none" vectornator:layerName="path"/>
</g>
</g>
</g>
<g id="Layer-1-copy-copy-copy" vectornator:layerName="Layer 1 copy copy copy" visibility="hidden">
<g opacity="1" vectornator:layerName="Fence"/>
<g opacity="1" vectornator:layerName="Log Cabin">
<path d="M3935.88 1543.49L2189.84 1533.13L443.799 1543.49L443.799 3003.48L3935.88 3003.48L3935.88 1543.49Z" fill="#874107" fill-rule="nonzero" opacity="1" stroke="#000000" stroke-linecap="round" stroke-linejoin="round" stroke-width="26" vectornator:layerName="path"/>
<path d="M443.799 2565.48L3935.88 2565.48L3935.88 2711.48L443.799 2711.48L443.799 2565.48ZM443.799 2200.48L3935.88 2200.48L3935.88 2346.48L443.799 2346.48L443.799 2200.48ZM443.799 1835.49L3935.88 1835.49L3935.88 1981.49L443.799 1981.49L443.799 1835.49ZM443.799 1470.49L3935.88 1470.49L3935.88 1616.49L443.799 1616.49L443.799 1470.49Z" fill="#663109" fill-rule="nonzero" opacity="1" stroke="#000000" stroke-linecap="round" stroke-linejoin="round" stroke-width="26" vectornator:layerName="path"/>
<path d="M2138.4 1612.93L3986.99 1616.49L4094.46 1689.49L4094.46 1322.91L2160 1316.52L225.544 1322.91L225.544 1689.49L333.014 1616.49L2138.4 1612.93Z" fill="#663109" fill-rule="nonzero" opacity="1" stroke="#000000" stroke-linecap="round" stroke-linejoin="round" stroke-width="26" vectornator:layerName="path"/>
<path d="M408.043 2638.48C307.252 2638.48 225.544 2720.19 225.544 2820.98C225.544 2921.77 307.252 3003.48 408.043 3003.48C508.835 3003.48 590.543 2921.77 590.543 2820.98C590.543 2720.19 508.835 2638.48 408.043 2638.48ZM408.043 2273.48C307.252 2273.48 225.544 2355.19 225.544 2455.98C225.544 2556.78 307.252 2638.48 408.043 2638.48C508.835 2638.48 590.543 2556.78 590.543 2455.98C590.543 2355.19 508.835 2273.48 408.043 2273.48ZM408.043 1908.49C307.252 1908.49 225.544 1990.19 225.544 2090.98C225.544 2191.78 307.252 2273.48 408.043 2273.48C508.835 2273.48 590.543 2191.78 590.543 2090.98C590.543 1990.19 508.835 1908.49 408.043 1908.49ZM408.043 1543.49C307.252 1543.49 225.544 1625.19 225.544 1725.99C225.544 1826.78 307.252 1908.49 408.043 1908.49C508.835 1908.49 590.543 1826.78 590.543 1725.99C590.543 1625.19 508.835 1543.49 408.043 1543.49Z" fill="#663109" fill-rule="nonzero" opacity="1" stroke="#000000" stroke-linecap="round" stroke-linejoin="round" stroke-width="26" vectornator:layerName="path"/>
<path d="M3911.96 2638.48C3811.16 2638.48 3729.46 2720.19 3729.46 2820.98C3729.46 2921.77 3811.16 3003.48 3911.96 3003.48C4012.75 3003.48 4094.46 2921.77 4094.46 2820.98C4094.46 2720.19 4012.75 2638.48 3911.96 2638.48ZM3911.96 2273.48C3811.16 2273.48 3729.46 2355.19 3729.46 2455.98C3729.46 2556.78 3811.16 2638.48 3911.96 2638.48C4012.75 2638.48 4094.46 2556.78 4094.46 2455.98C4094.46 2355.19 4012.75 2273.48 3911.96 2273.48ZM3911.96 1908.49C3811.16 1908.49 3729.46 1990.19 3729.46 2090.98C3729.46 2191.78 3811.16 2273.48 3911.96 2273.48C4012.75 2273.48 4094.46 2191.78 4094.46 2090.98C4094.46 1990.19 4012.75 1908.49 3911.96 1908.49ZM3911.96 1543.49C3811.16 1543.49 3729.46 1625.19 3729.46 1725.99C3729.46 1826.78 3811.16 1908.49 3911.96 1908.49C4012.75 1908.49 4094.46 1826.78 4094.46 1725.99C4094.46 1625.19 4012.75 1543.49 3911.96 1543.49Z" fill="#663109" fill-rule="nonzero" opacity="1" stroke="#000000" stroke-linecap="round" stroke-linejoin="round" stroke-width="26" vectornator:layerName="path 1"/>
<path d="M921.696 1836.68L3457.99 1836.68L3457.99 2716.48L921.696 2716.48L921.696 1836.68Z" fill="#2d211c" fill-rule="nonzero" opacity="1" stroke="#000000" stroke-linecap="round" stroke-linejoin="round" stroke-width="26" vectornator:layerName="path"/>
</g>
</g>
<g id="Layer-1-copy-copy-copy_2" vectornator:layerName="Layer 1 copy copy copy" visibility="hidden">
<g opacity="1" vectornator:layerName="Fence"/>
<g opacity="1" vectornator:layerName="Log Cabin">
<path d="M202.513 2735.84L1901.01 1378.3L2065.55 1584.16L367.051 2941.7L202.513 2735.84Z" fill="#663109" fill-rule="nonzero" opacity="1" stroke="#000000" stroke-linecap="round" stroke-linejoin="round" stroke-width="26" vectornator:layerName="path 4"/>
<path d="M4117.49 2735.84L2418.99 1378.3L2254.45 1584.16L3952.95 2941.7L4117.49 2735.84Z" fill="#663109" fill-rule="nonzero" opacity="1" stroke="#000000" stroke-linecap="round" stroke-linejoin="round" stroke-width="26" vectornator:layerName="path 5"/>
<path d="M3899.99 1631.18L2160 762.735L420.012 1631.18L3899.99 1631.18Z" fill="#874107" fill-rule="nonzero" opacity="1" stroke="#000000" stroke-linecap="round" stroke-linejoin="round" stroke-width="26" vectornator:layerName="path"/>
<path d="M420.012 1558.44L3899.99 1558.44L3899.99 1703.93L420.012 1703.93L420.012 1558.44ZM855.009 1194.7L3464.99 1194.7L3464.99 1340.2L855.009 1340.2L855.009 1194.7Z" fill="#663109" fill-rule="nonzero" opacity="1" stroke="#000000" stroke-linecap="round" stroke-linejoin="round" stroke-width="26" vectornator:layerName="path"/>
<path d="M202.513 3779.59L206.021 1605.24L469.558 1605.67L466.05 3780.01L202.513 3779.59Z" fill="#663109" fill-rule="nonzero" opacity="1" stroke="#000000" stroke-linecap="round" stroke-linejoin="round" stroke-width="26" vectornator:layerName="path 2"/>
<path d="M3850.44 3779.59L3853.95 1605.24L4117.49 1605.67L4113.98 3780.01L3850.44 3779.59Z" fill="#663109" fill-rule="nonzero" opacity="1" stroke="#000000" stroke-linecap="round" stroke-linejoin="round" stroke-width="26" vectornator:layerName="path 3"/>
<path d="M2138.14 830.972L4008.74 1703.93L4117.49 1776.68L4117.49 1485.69L2160 539.986L202.513 1485.69L202.513 1776.68L311.263 1703.93L2138.14 830.972Z" fill="#663109" fill-rule="nonzero" opacity="1" stroke="#000000" stroke-linecap="round" stroke-linejoin="round" stroke-width="26" vectornator:layerName="path"/>
</g>
<g opacity="1" vectornator:layerName="Group 2">
<g opacity="1" vectornator:layerName="Bonfire">
<path d="M1416.33 3730.88C1364.26 3730.88 1315.91 3713.41 1295.46 3686.68C1267.56 3649.67 1299.18 3607.52 1366.12 3592.1L2853.83 3248.73C2870.57 3244.61 2887.31 3243.59 2904.05 3243.59C2956.12 3243.59 3004.47 3261.06 3024.92 3287.79C3037.94 3305.27 3037.94 3324.8 3024.92 3343.31C3011.9 3360.78 2985.87 3375.18 2954.26 3382.37L1466.54 3725.74C1449.81 3728.83 1433.07 3730.88 1416.33 3730.88Z" fill="#542807" fill-rule="nonzero" opacity="1" stroke="#000000" stroke-linecap="round" stroke-linejoin="round" stroke-width="23" vectornator:layerName="path"/>
<path d="M1405.18 3589.01C1339.45 3589.01 1286.16 3618.93 1286.16 3655.84C1286.16 3692.74 1339.45 3722.66 1405.18 3722.66C1470.91 3722.66 1524.19 3692.74 1524.19 3655.84C1524.19 3618.93 1470.91 3589.01 1405.18 3589.01Z" fill="#e8d8c4" fill-rule="nonzero" opacity="1" stroke="#000000" stroke-linecap="round" stroke-linejoin="round" stroke-width="23" vectornator:layerName="path"/>
<path d="M2904.05 3730.88C2887.31 3730.88 2870.57 3728.83 2853.83 3725.74L1366.12 3381.34C1299.18 3365.92 1269.42 3323.77 1295.46 3286.76C1315.91 3260.03 1362.4 3242.56 1416.33 3242.56C1433.07 3242.56 1449.81 3244.61 1466.54 3247.7L2954.26 3591.07C2985.87 3598.26 3011.9 3612.66 3024.92 3630.13C3037.94 3647.61 3037.94 3667.14 3024.92 3685.65C3004.47 3713.41 2956.12 3730.88 2904.05 3730.88Z" fill="#733608" fill-rule="nonzero" opacity="1" stroke="#000000" stroke-linecap="round" stroke-linejoin="round" stroke-width="23" vectornator:layerName="path"/>
<path d="M2915.2 3597.24C2849.47 3597.24 2796.19 3627.15 2796.19 3664.06C2796.19 3700.97 2849.47 3730.88 2915.2 3730.88C2980.93 3730.88 3034.22 3700.97 3034.22 3664.06C3034.22 3627.15 2980.93 3597.24 2915.2 3597.24Z" fill="#e8d8c4" fill-rule="nonzero" opacity="1" stroke="#000000" stroke-linecap="round" stroke-linejoin="round" stroke-width="23" vectornator:layerName="path"/>
<path d="M2045.58 3751.53C2039.53 3746.31 2036.72 3740.66 2035.53 3734.81L2040.25 3200.05C2040.34 3176 2096 3158.09 2163.73 3158.65C2213.24 3159.56 2257.59 3170.5 2277.09 3187.33C2283.14 3192.55 2285.95 3198.2 2287.15 3204.05L2284.04 3738.6C2284.13 3749.94 2270.87 3761.01 2248.04 3768.64C2225.21 3776.28 2194.43 3780.28 2160.56 3780C2109.43 3779.29 2064.41 3767.78 2045.58 3751.53Z" fill="#874107" fill-rule="nonzero" opacity="1" stroke="#000000" stroke-linecap="round" stroke-linejoin="round" stroke-width="23" vectornator:layerName="path 1"/>
<path d="M2162.65 3674.93C2097.64 3674.93 2044.94 3698.46 2044.94 3727.47C2044.94 3756.49 2097.64 3780.01 2162.65 3780.01C2227.65 3780.01 2280.35 3756.49 2280.35 3727.47C2280.35 3698.46 2227.65 3674.93 2162.65 3674.93Z" fill="#e8d8c4" fill-rule="nonzero" opacity="1" stroke="#000000" stroke-linecap="round" stroke-linejoin="round" stroke-width="23" vectornator:layerName="path 2"/>
</g>
<g opacity="1" vectornator:layerName="Fire">
<path d="M1949.4 2466.12C2018.01 2271.18 2004.64 1976.26 2004.64 1976.26C2004.64 1976.26 2187.27 2059.69 2313.25 2289.25C2431.83 2504.96 2319.93 2826.41 2319.93 2826.41C2407.2 2731.05 2439.57 2635.69 2442.39 2521.11C2540.56 2692.21 2616.22 2887.93 2616.22 3086.34C2616.22 3331.66 2412.12 3530.06 2160.18 3530.45C1907.88 3530.06 1703.78 3331.27 1703.78 3085.95C1703.78 2847.17 1868.46 2696.06 1949.4 2466.12Z" fill="#e17a2d" fill-rule="nonzero" opacity="1" stroke="#000000" stroke-linecap="round" stroke-linejoin="round" stroke-width="23" vectornator:layerName="path"/>
<path d="M2039.13 2883.7C2076.78 2765.27 2069.39 2586.86 2069.39 2586.86C2069.39 2586.86 2430.77 2887.55 2405.09 3260.14C2394.88 3408.56 2293.19 3529.29 2154.55 3529.29C2016.26 3529.29 1904 3408.56 1904 3260.14C1904 3115.18 1994.44 3023.28 2039.13 2883.7Z" fill="#f4e028" fill-rule="nonzero" opacity="0.8" stroke="none" vectornator:layerName="path"/>
<path d="M2081.71 3115.18C2105.63 3040.2 2101.06 2927.15 2101.06 2927.15C2101.06 2927.15 2330.14 3117.48 2313.6 3353.57C2306.91 3447.39 2242.52 3524.29 2154.9 3524.29C2067.28 3524.29 1996.2 3447.78 1996.2 3353.57C1996.2 3261.67 2053.56 3203.61 2081.71 3115.18Z" fill="#ffffff" fill-rule="nonzero" opacity="0.8" stroke="none" vectornator:layerName="path"/>
</g>
</g>
</g>
<g id="Layer-1" vectornator:layerName="Layer 1" visibility="hidden">
<g opacity="1" vectornator:layerName="Group 1">
<g opacity="1" vectornator:layerName="Group 1">
<g opacity="1" vectornator:layerName="Group 1">
<g opacity="1" vectornator:layerName="Filter">
<path d="M2759.54 3152.55C2753.85 3160.95 2744.95 3165.88 2735.52 3165.86L1597.01 3164.16C1588.04 3164.14 1579.54 3159.65 1573.85 3151.91L608.005 1384.48C591.894 1362.57 605.897 1329.61 631.293 1329.66C631.293 1329.66 1144.32 1147.61 2155.86 1148.4C3050.9 1149.1 3683.63 1336.45 3683.63 1336.45C3708.41 1336.51 3722.47 1368.14 3707.53 1390.21L2759.54 3152.55Z" fill="#e7bd74" fill-rule="nonzero" opacity="1" stroke="#000000" stroke-linecap="butt" stroke-linejoin="round" stroke-width="23" vectornator:layerName="path"/>
<path d="M3564.25 1354.31C3534.88 1354.24 3510.8 1374.48 3494.32 1398.8L2643.73 2976.02L1692.98 2974.97C1630.4 2974.87 1586.2 3024.22 1585.89 3086.8L1585.93 3132.14C1585.89 3140.47 1591.34 3147.48 1599.66 3147.49L2735.71 3149.11C2741.43 3149.11 2746.36 3144.35 2749.38 3139.93L3687.69 1389.35C3702.89 1367.13 3700.12 1354.02 3673.19 1353.95L3564.25 1354.31Z" fill="#d8af68" fill-rule="nonzero" opacity="1" stroke="none" vectornator:layerName="path"/>
</g>
</g>
<path d="M1691.13 3064.36C1691.24 3009.34 1696.61 3008.03 1703.23 3008.04C1709.85 3008.06 1715.65 3007.85 1715.1 3064.41C1714.55 3120.75 1709.63 3120.74 1703.01 3120.73C1696.39 3120.71 1691.02 3120.7 1691.13 3064.36Z" fill="#c09752" fill-rule="nonzero" opacity="1" stroke="none" vectornator:layerName="Oval 27"/>
<path d="M1800.21 3064.44C1800.32 3009.43 1805.69 3008.12 1812.3 3008.13C1818.92 3008.14 1824.73 3007.94 1824.18 3064.5C1823.63 3120.84 1818.7 3120.83 1812.08 3120.81C1805.47 3120.8 1800.1 3120.79 1800.21 3064.44Z" fill="#c09752" fill-rule="nonzero" opacity="1" stroke="none" vectornator:layerName="Oval 28"/>
<path d="M1909.29 3064.53C1909.39 3009.51 1914.76 3008.2 1921.38 3008.22C1928 3008.23 1933.8 3008.02 1933.25 3064.58C1932.71 3120.92 1927.78 3120.91 1921.16 3120.9C1914.54 3120.88 1909.18 3120.87 1909.29 3064.53Z" fill="#c09752" fill-rule="nonzero" opacity="1" stroke="none" vectornator:layerName="Oval 29"/>
<path d="M2018.36 3064.62C2018.47 3009.6 2023.84 3008.29 2030.46 3008.3C2037.08 3008.32 2042.88 3008.11 2042.33 3064.67C2041.78 3121.01 2036.86 3121 2030.24 3120.98C2023.62 3120.97 2018.25 3120.96 2018.36 3064.62Z" fill="#c09752" fill-rule="nonzero" opacity="1" stroke="none" vectornator:layerName="Oval 30"/>
<path d="M2127.44 3064.7C2127.55 3009.68 2132.92 3008.37 2139.53 3008.39C2146.15 3008.4 2151.96 3008.19 2151.41 3064.75C2150.86 3121.09 2145.93 3121.08 2139.31 3121.07C2132.7 3121.05 2127.33 3121.04 2127.44 3064.7Z" fill="#c09752" fill-rule="nonzero" opacity="1" stroke="none" vectornator:layerName="Oval 31"/>
<path d="M2236.52 3064.79C2236.63 3009.77 2241.99 3008.46 2248.61 3008.47C2255.23 3008.49 2261.03 3008.28 2260.48 3064.84C2259.94 3121.18 2255.01 3121.17 2248.39 3121.15C2241.77 3121.14 2236.41 3121.13 2236.52 3064.79Z" fill="#c09752" fill-rule="nonzero" opacity="1" stroke="none" vectornator:layerName="Oval 32"/>
<path d="M2345.59 3064.87C2345.7 3009.86 2351.07 3008.54 2357.69 3008.56C2364.31 3008.57 2370.11 3008.36 2369.56 3064.92C2369.01 3121.27 2364.09 3121.25 2357.47 3121.24C2350.85 3121.22 2345.48 3121.21 2345.59 3064.87Z" fill="#c09752" fill-rule="nonzero" opacity="1" stroke="none" vectornator:layerName="Oval 33"/>
<path d="M2454.67 3064.96C2454.78 3009.94 2460.15 3008.63 2466.76 3008.64C2473.38 3008.66 2479.19 3008.45 2478.64 3065.01C2478.09 3121.35 2473.16 3121.34 2466.54 3121.33C2459.93 3121.31 2454.56 3121.3 2454.67 3064.96Z" fill="#c09752" fill-rule="nonzero" opacity="1" stroke="none" vectornator:layerName="Oval 34"/>
<path d="M2563.75 3065.04C2563.86 3010.03 2569.22 3008.71 2575.84 3008.73C2582.46 3008.74 2588.26 3008.54 2587.71 3065.1C2587.17 3121.44 2582.24 3121.43 2575.62 3121.41C2569 3121.4 2563.64 3121.38 2563.75 3065.04Z" fill="#c09752" fill-rule="nonzero" opacity="1" stroke="none" vectornator:layerName="Oval 35"/>
<path d="M2689.26 3060.31C2659.32 3014.15 2663.11 3010.12 2668.66 3006.52C2674.21 3002.92 2678.96 2999.58 2709.37 3047.27C2739.66 3094.78 2735.53 3097.46 2729.98 3101.06C2724.42 3104.66 2719.92 3107.58 2689.26 3060.31Z" fill="#c09752" fill-rule="nonzero" opacity="1" stroke="none" vectornator:layerName="Oval 36"/>
<path d="M2760.37 2950.36C2712.21 2923.76 2713.64 2918.43 2716.84 2912.64C2720.04 2906.84 2722.66 2901.66 2771.96 2929.38C2821.07 2957 2818.68 2961.32 2815.48 2967.11C2812.28 2972.9 2809.69 2977.6 2760.37 2950.36Z" fill="#c09752" fill-rule="nonzero" opacity="1" stroke="none" vectornator:layerName="Oval 37"/>
<path d="M2812.53 2854.57C2764.37 2827.97 2765.81 2822.63 2769.01 2816.84C2772.21 2811.05 2774.82 2805.86 2824.12 2833.59C2873.23 2861.21 2870.85 2865.52 2867.65 2871.32C2864.44 2877.11 2861.85 2881.8 2812.53 2854.57Z" fill="#c09752" fill-rule="nonzero" opacity="1" stroke="none" vectornator:layerName="Oval 38"/>
<path d="M2864.69 2758.77C2816.53 2732.17 2817.97 2726.84 2821.17 2721.04C2824.37 2715.25 2826.98 2710.07 2876.29 2737.79C2925.39 2765.41 2923.01 2769.73 2919.81 2775.52C2916.61 2781.31 2914.01 2786.01 2864.69 2758.77Z" fill="#c09752" fill-rule="nonzero" opacity="1" stroke="none" vectornator:layerName="Oval 39"/>
<path d="M2916.86 2662.98C2868.7 2636.38 2870.13 2631.04 2873.33 2625.25C2876.53 2619.46 2879.15 2614.27 2928.45 2642C2977.56 2669.62 2975.17 2673.93 2971.97 2679.73C2968.77 2685.52 2966.18 2690.21 2916.86 2662.98Z" fill="#c09752" fill-rule="nonzero" opacity="1" stroke="none" vectornator:layerName="Oval 40"/>
<path d="M2969.02 2567.18C2920.86 2540.58 2922.3 2535.25 2925.5 2529.45C2928.7 2523.66 2931.31 2518.48 2980.61 2546.2C3029.72 2573.82 3027.34 2578.14 3024.14 2583.93C3020.93 2589.72 3018.34 2594.42 2969.02 2567.18Z" fill="#c09752" fill-rule="nonzero" opacity="1" stroke="none" vectornator:layerName="Oval 41"/>
<path d="M3021.18 2471.39C2973.02 2444.79 2974.46 2439.45 2977.66 2433.66C2980.86 2427.87 2983.48 2422.68 3032.78 2450.41C3081.88 2478.03 3079.5 2482.34 3076.3 2488.14C3073.1 2493.93 3070.5 2498.62 3021.18 2471.39Z" fill="#c09752" fill-rule="nonzero" opacity="1" stroke="none" vectornator:layerName="Oval 42"/>
<path d="M3073.35 2375.59C3025.19 2348.99 3026.62 2343.66 3029.82 2337.86C3033.02 2332.07 3035.64 2326.89 3084.94 2354.61C3134.05 2382.23 3131.66 2386.55 3128.46 2392.34C3125.26 2398.13 3122.67 2402.83 3073.35 2375.59Z" fill="#c09752" fill-rule="nonzero" opacity="1" stroke="none" vectornator:layerName="Oval 43"/>
<path d="M3125.51 2279.8C3077.35 2253.2 3078.79 2247.86 3081.99 2242.07C3085.19 2236.28 3087.8 2231.09 3137.1 2258.82C3186.21 2286.44 3183.83 2290.75 3180.63 2296.55C3177.43 2302.34 3174.83 2307.03 3125.51 2279.8Z" fill="#c09752" fill-rule="nonzero" opacity="1" stroke="none" vectornator:layerName="Oval 44"/>
<path d="M3177.67 2184C3129.51 2157.4 3130.95 2152.07 3134.15 2146.27C3137.35 2140.48 3139.97 2135.3 3189.27 2163.02C3238.37 2190.64 3235.99 2194.96 3232.79 2200.75C3229.59 2206.54 3226.99 2211.24 3177.67 2184Z" fill="#c09752" fill-rule="nonzero" opacity="1" stroke="none" vectornator:layerName="Oval 45"/>
<path d="M3229.84 2088.21C3181.68 2061.61 3183.11 2056.27 3186.31 2050.48C3189.52 2044.69 3192.13 2039.5 3241.43 2067.23C3290.54 2094.85 3288.15 2099.16 3284.95 2104.95C3281.75 2110.75 3279.16 2115.44 3229.84 2088.21Z" fill="#c09752" fill-rule="nonzero" opacity="1" stroke="none" vectornator:layerName="Oval 46"/>
<path d="M3282 1992.41C3233.84 1965.81 3235.28 1960.48 3238.48 1954.68C3241.68 1948.89 3244.29 1943.7 3293.59 1971.43C3342.7 1999.05 3340.32 2003.37 3337.12 2009.16C3333.92 2014.95 3331.32 2019.65 3282 1992.41Z" fill="#c09752" fill-rule="nonzero" opacity="1" stroke="none" vectornator:layerName="Oval 47"/>
<path d="M3334.16 1896.61C3286 1870.02 3287.44 1864.68 3290.64 1858.89C3293.84 1853.1 3296.46 1847.91 3345.76 1875.64C3394.87 1903.26 3392.48 1907.57 3389.28 1913.36C3386.08 1919.16 3383.48 1923.85 3334.16 1896.61Z" fill="#c09752" fill-rule="nonzero" opacity="1" stroke="none" vectornator:layerName="Oval 48"/>
<path d="M3386.33 1800.82C3338.17 1774.22 3339.6 1768.89 3342.8 1763.09C3346.01 1757.3 3348.62 1752.11 3397.92 1779.84C3447.03 1807.46 3444.64 1811.78 3441.44 1817.57C3438.24 1823.36 3435.65 1828.06 3386.33 1800.82Z" fill="#c09752" fill-rule="nonzero" opacity="1" stroke="none" vectornator:layerName="Oval 49"/>
<path d="M3431.97 1717C3383.81 1690.4 3385.25 1685.07 3388.45 1679.27C3391.65 1673.48 3394.26 1668.29 3443.56 1696.02C3492.67 1723.64 3490.29 1727.96 3487.09 1733.75C3483.89 1739.54 3481.29 1744.24 3431.97 1717Z" fill="#c09752" fill-rule="nonzero" opacity="1" stroke="none" vectornator:layerName="Oval 50"/>
<path d="M3484.14 1621.2C3435.97 1594.61 3437.41 1589.27 3440.61 1583.48C3443.81 1577.69 3446.43 1572.5 3495.73 1600.23C3544.84 1627.85 3542.45 1632.16 3539.25 1637.95C3536.05 1643.75 3533.45 1648.44 3484.14 1621.2Z" fill="#c09752" fill-rule="nonzero" opacity="1" stroke="none" vectornator:layerName="Oval 51"/>
<path d="M3536.3 1525.41C3488.14 1498.81 3489.57 1493.48 3492.77 1487.68C3495.98 1481.89 3498.59 1476.7 3547.89 1504.43C3597 1532.05 3594.62 1536.37 3591.41 1542.16C3588.21 1547.95 3585.62 1552.65 3536.3 1525.41Z" fill="#c09752" fill-rule="nonzero" opacity="1" stroke="none" vectornator:layerName="Oval 52"/>
<path d="M3588.46 1429.61C3540.3 1403.02 3541.74 1397.68 3544.94 1391.89C3548.14 1386.09 3550.75 1380.91 3600.05 1408.64C3649.16 1436.26 3646.78 1440.57 3643.58 1446.36C3640.38 1452.16 3637.78 1456.85 3588.46 1429.61Z" fill="#c09752" fill-rule="nonzero" opacity="1" stroke="none" vectornator:layerName="Oval 53"/>
</g>
</g>
</g>
<g id="Layer-2" vectornator:layerName="Layer 2" visibility="hidden">
<g opacity="1" vectornator:layerName="Finish Flag">
<path d="M1205.45 3369.24C1205.45 3462.1 1188.41 3554.17 1155.17 3640.88L1089.77 3811.46L1023.13 3646.37C986.702 3556.11 967.975 3459.68 967.975 3362.35L967.975 897.474C967.975 897.474 1014.2 687.089 1090.04 687.089C1165.87 687.089 1205.45 897.474 1205.45 897.474L1205.45 3369.24Z" fill="#000000" fill-rule="nonzero" opacity="1" stroke="none" vectornator:layerName="path"/>
<path d="M1094.63 508.372C1023.59 508.372 966.012 565.954 966.012 636.986C966.012 708.018 1023.59 765.601 1094.63 765.601C1165.66 765.601 1223.24 708.018 1223.24 636.986C1223.24 565.954 1165.66 508.372 1094.63 508.372Z" fill="#000000" fill-rule="nonzero" opacity="1" stroke="none" vectornator:layerName="path"/>
<path d="M967.975 907.186L3310.73 907.186C3334.62 907.186 3353.99 926.552 3353.99 950.441L3353.99 2516.55C3353.99 2540.44 3334.62 2559.81 3310.73 2559.81L967.975 2559.81L967.975 907.186Z" fill="#ffffff" fill-rule="nonzero" opacity="1" stroke="none" vectornator:layerName="path"/>
<path d="M1365.64 907.186L1763.31 907.186L1763.31 1320.34L1365.64 1320.34L1365.64 907.186ZM1763.31 1320.34L2160.98 1320.34L2160.98 1733.5L1763.31 1733.5L1763.31 1320.34ZM2956.32 907.186L3310.74 907.186C3334.62 907.186 3353.99 926.549 3353.99 950.434L3353.99 1320.34L2956.32 1320.34L2956.32 907.186ZM2160.98 907.186L2558.65 907.186L2558.65 1320.34L2160.98 1320.34L2160.98 907.186ZM2558.65 1320.34L2956.32 1320.34L2956.32 1733.5L2558.65 1733.5L2558.65 1320.34ZM1365.64 1733.5L1763.31 1733.5L1763.31 2146.65L1365.64 2146.65L1365.64 1733.5ZM1763.31 2146.65L2160.98 2146.65L2160.98 2559.81L1763.31 2559.81L1763.31 2146.65ZM967.975 1320.34L1365.64 1320.34L1365.64 1733.5L967.975 1733.5L967.975 1320.34ZM967.975 2146.65L1365.64 2146.65L1365.64 2559.81L967.975 2559.81L967.975 2146.65ZM2956.32 1733.5L3353.99 1733.5L3353.99 2146.65L2956.32 2146.65L2956.32 1733.5ZM2160.98 1733.5L2558.65 1733.5L2558.65 2146.65L2160.98 2146.65L2160.98 1733.5ZM2558.65 2146.65L2956.32 2146.65L2956.32 2559.81L2558.65 2559.81L2558.65 2146.65Z" fill="#000000" fill-rule="nonzero" opacity="1" stroke="none" vectornator:layerName="path"/>
</g>
</g>
<g id="Layer-2-copy" vectornator:layerName="Layer 2 copy" visibility="hidden">
<g opacity="1" vectornator:layerName="Finish Flag">
<path d="M1205.45 3369.24C1205.45 3462.1 1188.41 3554.17 1155.17 3640.88L1089.77 3811.46L1023.13 3646.37C986.702 3556.11 967.975 3459.68 967.975 3362.35L967.975 897.474C967.975 897.474 1014.2 687.089 1090.04 687.089C1165.87 687.089 1205.45 897.474 1205.45 897.474L1205.45 3369.24Z" fill="#000000" fill-rule="nonzero" opacity="1" stroke="none" vectornator:layerName="path"/>
<path d="M1094.63 508.372C1023.59 508.372 966.012 565.954 966.012 636.986C966.012 708.018 1023.59 765.601 1094.63 765.601C1165.66 765.601 1223.24 708.018 1223.24 636.986C1223.24 565.954 1165.66 508.372 1094.63 508.372Z" fill="#000000" fill-rule="nonzero" opacity="1" stroke="none" vectornator:layerName="path"/>
<path d="M967.975 907.186L3314.31 907.186C3336.23 907.186 3353.99 924.948 3353.99 946.86L3353.99 2520.14C3353.99 2542.05 3336.23 2559.81 3314.31 2559.81L967.975 2559.81L967.975 907.186Z" fill="#ffffff" fill-rule="nonzero" opacity="1" stroke="none" vectornator:layerName="path"/>
</g>
</g>
<g id="Layer-2-copy_2" vectornator:layerName="Layer 2 copy" visibility="hidden">
<g opacity="1" vectornator:layerName="Finish Flag">
<path d="M1157.24 3359.02C1157.24 3451.88 1140.2 3543.95 1106.96 3630.65L1041.56 3801.23L974.926 3636.14C938.494 3545.88 919.767 3449.46 919.767 3352.12L919.767 887.249C919.767 887.249 968.14 685.669 1043.97 685.669C1119.81 685.669 1157.24 887.249 1157.24 887.249L1157.24 3359.02Z" fill="#000000" fill-rule="nonzero" opacity="1" stroke="none" vectornator:layerName="path"/>
<path d="M1046.42 518.77C975.387 518.77 917.804 576.352 917.804 647.384C917.804 718.416 975.387 775.999 1046.42 775.999C1117.45 775.999 1175.03 718.416 1175.03 647.384C1175.03 576.352 1117.45 518.77 1046.42 518.77Z" fill="#000000" fill-rule="nonzero" opacity="1" stroke="none" vectornator:layerName="path"/>
<path d="M919.767 909.514L3335.12 909.514C3372.17 909.514 3402.2 939.545 3402.2 976.589L3402.2 2482.51C3402.2 2519.55 3372.17 2549.58 3335.12 2549.58L919.767 2549.58L919.767 909.514Z" fill="url(#RadialGradient)" fill-rule="nonzero" opacity="1" stroke="none" vectornator:layerName="path"/>
<g fill="#000000" opacity="1" stroke="none" vectornator:layerName="Text 1">
<path d="M1474.31 1523.36L1477.53 1655.78L1465.52 1655.78C1459.85 1622.58 1445.94 1595.87 1423.77 1575.65C1401.6 1555.44 1377.63 1545.33 1351.85 1545.33C1331.92 1545.33 1316.15 1550.65 1304.53 1561.3C1292.91 1571.94 1287.1 1584.2 1287.1 1598.07C1287.1 1606.86 1289.15 1614.67 1293.25 1621.5C1298.92 1630.68 1308 1639.77 1320.5 1648.75C1329.68 1655.2 1350.87 1666.62 1384.07 1683.03C1430.56 1705.88 1461.9 1727.46 1478.12 1747.77C1494.13 1768.09 1502.14 1791.33 1502.14 1817.5C1502.14 1850.7 1489.2 1879.27 1463.32 1903.19C1437.44 1927.12 1404.58 1939.08 1364.74 1939.08C1352.24 1939.08 1340.42 1937.81 1329.29 1935.27C1318.15 1932.73 1304.19 1927.95 1287.39 1920.92C1278.02 1917.01 1270.3 1915.06 1264.25 1915.06C1259.17 1915.06 1253.8 1917.01 1248.13 1920.92C1242.47 1924.82 1237.88 1930.78 1234.37 1938.79L1223.53 1938.79L1223.53 1788.79L1234.37 1788.79C1242.96 1830.98 1259.51 1863.15 1284.02 1885.32C1308.54 1907.49 1334.95 1918.57 1363.27 1918.57C1385.15 1918.57 1402.58 1912.62 1415.57 1900.7C1428.55 1888.79 1435.05 1874.92 1435.05 1859.1C1435.05 1849.73 1432.56 1840.64 1427.58 1831.86C1422.6 1823.07 1415.03 1814.72 1404.87 1806.81C1394.72 1798.9 1376.75 1788.59 1350.97 1775.9C1314.83 1758.12 1288.86 1742.99 1273.04 1730.49C1257.22 1717.99 1245.06 1704.02 1236.56 1688.59C1228.07 1673.16 1223.82 1656.17 1223.82 1637.62C1223.82 1605.98 1235.44 1579.02 1258.68 1556.76C1281.92 1534.49 1311.22 1523.36 1346.57 1523.36C1359.46 1523.36 1371.96 1524.92 1384.07 1528.05C1393.25 1530.39 1404.43 1534.74 1417.62 1541.08C1430.8 1547.43 1440.03 1550.61 1445.3 1550.61C1450.38 1550.61 1454.38 1549.04 1457.31 1545.92C1460.24 1542.79 1462.98 1535.27 1465.52 1523.36L1474.31 1523.36Z"/>
<path d="M1904.68 1532.44L1904.68 1639.96L1894.13 1639.96C1887.88 1615.16 1880.95 1597.33 1873.33 1586.49C1865.71 1575.65 1855.26 1567.01 1841.98 1560.57C1834.56 1557.05 1821.57 1555.29 1803.02 1555.29L1773.43 1555.29L1773.43 1861.74C1773.43 1882.05 1774.55 1894.75 1776.8 1899.82C1779.04 1904.9 1783.44 1909.35 1789.98 1913.15C1796.52 1916.96 1805.46 1918.87 1816.79 1918.87L1829.97 1918.87L1829.97 1929.71L1621.96 1929.71L1621.96 1918.87L1635.15 1918.87C1646.67 1918.87 1655.95 1916.82 1662.98 1912.71C1668.06 1909.98 1672.06 1905.29 1674.99 1898.65C1677.14 1893.96 1678.21 1881.66 1678.21 1861.74L1678.21 1555.29L1649.5 1555.29C1622.74 1555.29 1603.31 1560.96 1591.2 1572.28C1574.21 1588.11 1563.47 1610.66 1558.97 1639.96L1547.84 1639.96L1547.84 1532.44L1904.68 1532.44Z"/>
<path d="M2131.44 1816.62L1991.1 1816.62L1974.4 1855.29C1968.94 1868.18 1966.2 1878.83 1966.2 1887.23C1966.2 1898.36 1970.69 1906.56 1979.68 1911.84C1984.95 1914.96 1997.94 1917.3 2018.64 1918.87L2018.64 1929.71L1886.51 1929.71L1886.51 1918.87C1900.77 1916.72 1912.49 1910.81 1921.67 1901.14C1930.85 1891.47 1942.18 1871.5 1955.65 1841.23L2097.74 1524.24L2103.31 1524.24L2246.57 1850.02C2260.24 1880.88 2271.47 1900.31 2280.26 1908.32C2286.9 1914.37 2296.28 1917.89 2308.39 1918.87L2308.39 1929.71L2116.2 1929.71L2116.2 1918.87L2124.11 1918.87C2139.54 1918.87 2150.38 1916.72 2156.63 1912.42C2160.93 1909.3 2163.08 1904.8 2163.08 1898.95C2163.08 1895.43 2162.49 1891.82 2161.32 1888.11C2160.93 1886.35 2158 1879.02 2152.53 1866.13L2131.44 1816.62ZM2121.47 1794.94L2062.29 1658.12L2001.36 1794.94L2121.47 1794.94Z"/>
<path d="M2474.5 1748.65L2474.5 1859.98C2474.5 1881.46 2475.82 1894.99 2478.46 1900.56C2481.09 1906.12 2485.73 1910.57 2492.37 1913.89C2499.01 1917.21 2511.42 1918.87 2529.58 1918.87L2529.58 1929.71L2326.26 1929.71L2326.26 1918.87C2344.62 1918.87 2357.07 1917.16 2363.61 1913.74C2370.16 1910.32 2374.75 1905.88 2377.38 1900.41C2380.02 1894.94 2381.34 1881.46 2381.34 1859.98L2381.34 1602.17C2381.34 1580.68 2380.02 1567.16 2377.38 1561.59C2374.75 1556.03 2370.11 1551.58 2363.47 1548.26C2356.83 1544.94 2344.42 1543.28 2326.26 1543.28L2326.26 1532.44L2510.83 1532.44C2558.88 1532.44 2594.03 1535.76 2616.3 1542.4C2638.56 1549.04 2656.73 1561.3 2670.79 1579.17C2684.85 1597.04 2691.88 1617.99 2691.88 1642.01C2691.88 1671.31 2681.34 1695.53 2660.24 1714.67C2646.77 1726.78 2627.92 1735.86 2603.7 1741.91L2699.21 1876.39C2711.71 1893.77 2720.6 1904.61 2725.87 1908.91C2733.88 1914.96 2743.15 1918.28 2753.7 1918.87L2753.7 1929.71L2628.6 1929.71L2500.58 1748.65L2474.5 1748.65ZM2474.5 1553.83L2474.5 1727.85L2491.2 1727.85C2518.35 1727.85 2538.66 1725.36 2552.14 1720.38C2565.62 1715.4 2576.21 1706.42 2583.93 1693.43C2591.64 1680.44 2595.5 1663.5 2595.5 1642.6C2595.5 1612.32 2588.42 1589.96 2574.26 1575.51C2560.1 1561.05 2537.29 1553.83 2505.85 1553.83L2474.5 1553.83Z"/>
<path d="M3105.85 1532.44L3105.85 1639.96L3095.3 1639.96C3089.05 1615.16 3082.12 1597.33 3074.5 1586.49C3066.88 1575.65 3056.44 1567.01 3043.15 1560.57C3035.73 1557.05 3022.74 1555.29 3004.19 1555.29L2974.6 1555.29L2974.6 1861.74C2974.6 1882.05 2975.72 1894.75 2977.97 1899.82C2980.21 1904.9 2984.61 1909.35 2991.15 1913.15C2997.7 1916.96 3006.63 1918.87 3017.96 1918.87L3031.14 1918.87L3031.14 1929.71L2823.13 1929.71L2823.13 1918.87L2836.32 1918.87C2847.84 1918.87 2857.12 1916.82 2864.15 1912.71C2869.23 1909.98 2873.23 1905.29 2876.16 1898.65C2878.31 1893.96 2879.38 1881.66 2879.38 1861.74L2879.38 1555.29L2850.67 1555.29C2823.92 1555.29 2804.48 1560.96 2792.37 1572.28C2775.38 1588.11 2764.64 1610.66 2760.15 1639.96L2749.01 1639.96L2749.01 1532.44L3105.85 1532.44Z"/>
</g>
</g>
</g>
<g id="Layer-3" vectornator:layerName="Layer 3" visibility="hidden">
<path d="M1172.2 1550.36C1172.2 1004.82 1614.45 562.565 2160 562.565C2705.55 562.565 3147.8 1004.82 3147.8 1550.36C3147.8 2095.91 2160 3757.26 2160 3757.26C2160 3757.26 1172.2 2095.91 1172.2 1550.36Z" fill="#000000" fill-rule="nonzero" opacity="1" stroke="none" vectornator:layerName="Oval 1"/>
<path d="M2164.64 1275.59C2185.8 1275.59 2203.7 1283 2218.35 1297.81C2233 1312.62 2240.32 1330.44 2240.32 1351.28C2240.32 1372.11 2232.92 1389.85 2218.11 1404.5C2203.29 1419.15 2185.47 1426.47 2164.64 1426.47C2143.81 1426.47 2126.06 1419.15 2111.42 1404.5C2096.77 1389.85 2089.44 1372.11 2089.44 1351.28C2089.44 1330.44 2096.77 1312.62 2111.42 1297.81C2126.06 1283 2143.81 1275.59 2164.64 1275.59ZM2233 1496.79L2233 1858.6C2233 1890.83 2236.74 1911.42 2244.23 1920.37C2251.72 1929.32 2266.36 1934.45 2288.17 1935.75L2288.17 1953.33L2041.59 1953.33L2041.59 1935.75C2061.77 1935.1 2076.75 1929.24 2086.51 1918.17C2093.02 1910.69 2096.28 1890.83 2096.28 1858.6L2096.28 1592C2096.28 1559.77 2092.54 1539.18 2085.05 1530.23C2077.56 1521.28 2063.08 1516.15 2041.59 1514.85L2041.59 1496.79L2233 1496.79Z" fill="#ffffff" opacity="1" stroke="none" vectornator:layerName="Text 1"/>
</g>
<g id="Layer-3-copy" vectornator:layerName="Layer 3 copy" visibility="hidden">
<path d="M1172.2 1551.36C1172.2 1005.82 1614.45 563.565 2160 563.565C2705.55 563.565 3147.8 1005.82 3147.8 1551.36C3147.8 2096.91 2160 3758.26 2160 3758.26C2160 3758.26 1172.2 2096.91 1172.2 1551.36Z" fill="#000000" fill-rule="nonzero" opacity="1" stroke="none" vectornator:layerName="Oval 1"/>
<path d="M2158.15 1738.51L2138.13 1738.51C2137.48 1702.38 2139.19 1675.36 2143.26 1657.45C2147.33 1639.55 2157.91 1614.89 2175 1583.48C2192.09 1552.07 2203.32 1526.84 2208.69 1507.8C2214.06 1488.75 2216.75 1465.23 2216.75 1437.24C2216.75 1393.94 2208.28 1362.04 2191.36 1341.54C2174.43 1321.03 2154.41 1310.77 2131.3 1310.77C2113.72 1310.77 2098.91 1315.49 2086.87 1324.93C2077.75 1332.1 2073.19 1339.58 2073.19 1347.4C2073.19 1352.6 2076.29 1360.74 2082.47 1371.81C2096.47 1396.87 2103.47 1418.2 2103.47 1435.77C2103.47 1451.72 2098.01 1465.07 2087.11 1475.81C2076.2 1486.56 2062.61 1491.93 2046.34 1491.93C2028.11 1491.93 2012.81 1485.5 2000.44 1472.64C1988.07 1459.78 1981.88 1442.77 1981.88 1421.61C1981.88 1383.2 1998.49 1349.51 2031.69 1320.54C2064.89 1291.57 2111.28 1277.08 2170.85 1277.08C2234 1277.08 2282.1 1292.14 2315.14 1322.25C2348.18 1352.36 2364.7 1388.74 2364.7 1431.38C2364.7 1462.3 2356.23 1490.87 2339.31 1517.07C2322.38 1543.28 2289.66 1572.33 2241.16 1604.23C2208.61 1625.72 2187.21 1644.84 2176.95 1661.6C2166.7 1678.37 2160.43 1704 2158.15 1738.51ZM2152.78 1809.8C2174.59 1809.8 2193.15 1817.45 2208.45 1832.75C2223.75 1848.05 2231.4 1866.6 2231.4 1888.41C2231.4 1910.22 2223.75 1928.86 2208.45 1944.32C2193.15 1959.78 2174.59 1967.51 2152.78 1967.51C2130.97 1967.51 2112.42 1959.78 2097.12 1944.32C2081.82 1928.86 2074.17 1910.22 2074.17 1888.41C2074.17 1866.6 2081.82 1848.05 2097.12 1832.75C2112.42 1817.45 2130.97 1809.8 2152.78 1809.8Z" fill="#ffffff" opacity="1" stroke="none" vectornator:layerName="Text 1"/>
</g>
<g id="Layer-3-copy-copy" vectornator:layerName="Layer 3 copy copy" visibility="hidden">
<path d="M1172.2 1550.36C1172.2 1004.82 1614.45 562.565 2160 562.565C2705.55 562.565 3147.8 1004.82 3147.8 1550.36C3147.8 2095.91 2160 3757.26 2160 3757.26C2160 3757.26 1172.2 2095.91 1172.2 1550.36Z" fill="#000000" fill-rule="nonzero" opacity="1" stroke="none" vectornator:layerName="Oval 1"/>
</g>
</svg>
