<?xml version="1.0" encoding="UTF-8" standalone="no"?>
<!-- Created with Vectornator (http://vectornator.io/) -->

<svg
   height="100%"
   stroke-miterlimit="10"
   style="fill-rule:nonzero;clip-rule:evenodd;stroke-linecap:round;stroke-linejoin:round;"
   version="1.1"
   viewBox="0 0 4320 4320"
   width="100%"
   xml:space="preserve"
   id="svg126"
   sodipodi:docname="trashroom.svg"
   inkscape:version="1.3.2 (091e20e, 2023-11-25, custom)"
   inkscape:export-filename="trashroom.png"
   inkscape:export-xdpi="2.2222223"
   inkscape:export-ydpi="2.2222223"
   xmlns:inkscape="http://www.inkscape.org/namespaces/inkscape"
   xmlns:sodipodi="http://sodipodi.sourceforge.net/DTD/sodipodi-0.dtd"
   xmlns:xlink="http://www.w3.org/1999/xlink"
   xmlns="http://www.w3.org/2000/svg"
   xmlns:svg="http://www.w3.org/2000/svg"
   xmlns:vectornator="http://vectornator.io"><sodipodi:namedview
   id="namedview126"
   pagecolor="#ffffff"
   bordercolor="#000000"
   borderopacity="0.25"
   inkscape:showpageshadow="2"
   inkscape:pageopacity="0.0"
   inkscape:pagecheckerboard="0"
   inkscape:deskcolor="#d1d1d1"
   inkscape:zoom="0.17384259"
   inkscape:cx="2329.6938"
   inkscape:cy="2004.6871"
   inkscape:window-width="1920"
   inkscape:window-height="1000"
   inkscape:window-x="-11"
   inkscape:window-y="-11"
   inkscape:window-maximized="1"
   inkscape:current-layer="svg126"
   showgrid="false" />
<defs
   id="defs2">
<radialGradient
   cx="0"
   cy="0"
   gradientTransform="matrix(1241.21 0 0 1241.21 2160.98 1729.55)"
   gradientUnits="userSpaceOnUse"
   id="RadialGradient"
   r="1">
<stop
   offset="0"
   stop-color="#71cc58"
   id="stop1" />
<stop
   offset="1"
   stop-color="#28882f"
   id="stop2" />
</radialGradient>
<symbol
   id="Recycling"><title
     id="title132">Recycling</title><g
     style="stroke:none"
     id="g138"><path
       d="m 55.5,14.75 -5.25,3 -3.5,-6 c -0.5,-0.875 -1.5,-1.5 -2.875,-1.5 h -10.5 c 0.75,0.75 0.875,1 1.25,1.625 l 6.5,11.25 -5.25,3 h 13 z"
       id="path133-7" /><path
       d="m 53.875,45.5 h 5.25 c 3.125,0 5,-3.375 3.5,-6 L 56,27.9 47,33.15 Z"
       id="path134-1" /><path
       d="m 46,64.5 v -6 h 7 c 1,0 2,-0.5 2.75,-1.75 l 5.25,-9 C 60,48 59.625,48 59,48 H 46 v -6 l -6.5,11.25 z"
       id="path135" /><path
       d="m 20.25,48 -2.625,4.5 c -1.5,2.75 0.375,6 3.375,6 H 34.25 V 48 Z"
       id="path136" /><path
       d="m 7.75,31.75 5.25,3 -3.5,6 C 9,41.625 9,42.75 9.625,44 l 5.125,9 C 15,52 15.125,51.75 15.5,51.125 l 6.5,-11.25 5.25,3 -6.5,-11.25 z"
       id="path137" /><path
       d="M 35,17.5 32.5,13 c -1.625,-2.625 -5.375,-2.625 -6.875,0 L 19,24.5 l 9,5.25 z"
       id="path138" /></g></symbol></defs>
<g
   id="Layer-3-copy-copy"
   vectornator:layerName="Layer 3 copy copy"
   visibility="hidden"
   style="fill:#ececec;stroke:#000000;stroke-width:22.3229;stroke-linejoin:miter"
   inkscape:label="pin"
   transform="matrix(1.3323958,0,0,1.3323958,-717.97493,-724.97213)">
<g
   id="path126"><path
     style="color:#000000;clip-rule:nonzero;stroke:none;stroke-linecap:butt;stroke-miterlimit:10;-inkscape-stroke:none"
     d="m 1172.2,1550.36 c 0,-545.54 442.25,-987.795 987.8,-987.795 545.55,0 987.8,442.255 987.8,987.795 0,545.55 -987.8,2206.9 -987.8,2206.9 0,0 -987.8,-1661.35 -987.8,-2206.9 z"
     id="path133" /><path
     style="color:#000000;clip-rule:nonzero;fill:#000000;stroke:none;stroke-linecap:butt;stroke-miterlimit:10;-inkscape-stroke:none"
     d="m 2160,551.4043 c -551.5815,0 -998.9609,447.3835 -998.9609,998.9551 0,139.7556 62.3203,346.1211 155.1347,579.1133 92.8145,232.9921 216.4148,492.0414 339.9864,733.9961 247.1431,483.9093 494.2461,899.496 494.2461,899.496 l 9.5937,16.1348 9.5938,-16.1348 c 0,0 247.1029,-415.5867 494.246,-899.496 123.5716,-241.9547 247.1719,-501.004 339.9864,-733.9961 92.8144,-232.9922 155.1347,-439.3577 155.1347,-579.1133 0,-551.5716 -447.3794,-998.9551 -998.9609,-998.9551 z m 0,22.32226 c 539.5174,0 976.6387,437.12544 976.6387,976.63284 0,133.0191 -61.1529,338.9051 -153.5508,570.8515 -92.3979,231.9465 -215.7507,490.5275 -339.1289,732.1036 -232.8039,455.833 -458.3721,838.625 -483.959,881.8652 -25.5869,-43.2402 -251.1551,-426.0322 -483.959,-881.8652 -123.3782,-241.5761 -246.731,-500.1571 -339.1289,-732.1036 -92.3979,-231.9464 -153.5508,-437.8324 -153.5508,-570.8515 0,-539.5074 437.1213,-976.63284 976.6387,-976.63284 z"
     id="path134" /></g>
</g><g
   id="Eld"
   vectornator:layerName="Eld"
   visibility="hidden"
   style="display:none"
   transform="matrix(0.76437419,0,0,0.77353501,508.95171,-465.92149)"
   inkscape:export-filename="testcampfirering.svg"
   inkscape:export-xdpi="96"
   inkscape:export-ydpi="96">
<g
   opacity="1"
   vectornator:layerName="Group 2"
   id="g11">
<g
   opacity="1"
   vectornator:layerName="Bonfire"
   id="g7">
<path
   d="m 1045.47,3482.21 c -78.037,0 -150.5,-35.55 -181.158,-89.91 -41.805,-75.28 5.574,-161.01 105.908,-192.37 l 2229.63,-698.37 c 25.08,-8.37 50.17,-10.46 75.25,-10.46 78.04,0 150.5,35.55 181.16,89.91 19.51,35.55 19.51,75.28 0,112.91 -19.51,35.55 -58.53,64.82 -105.91,79.46 l -2229.63,698.37 c -25.08,6.27 -50.17,10.46 -75.25,10.46 z"
   fill="#542807"
   fill-rule="nonzero"
   opacity="1"
   stroke="#000000"
   stroke-linecap="round"
   stroke-linejoin="round"
   stroke-width="23"
   vectornator:layerName="path"
   id="path2" />
<path
   d="m 1028.75,3193.66 c -98.514,0 -178.373,60.85 -178.373,135.91 0,75.06 79.859,135.91 178.373,135.91 98.51,0 178.37,-60.85 178.37,-135.91 0,-75.06 -79.86,-135.91 -178.37,-135.91 z"
   fill="#e8d8c4"
   fill-rule="nonzero"
   opacity="1"
   stroke="#000000"
   stroke-linecap="round"
   stroke-linejoin="round"
   stroke-width="23"
   vectornator:layerName="path"
   id="path3" />
<path
   d="m 3275.1,3482.21 c -25.08,0 -50.17,-4.19 -75.25,-10.46 L 970.22,2771.29 C 869.886,2739.92 825.294,2654.2 864.312,2578.92 c 30.658,-54.36 100.333,-89.91 181.158,-89.91 25.08,0 50.17,4.18 75.25,10.46 l 2229.63,698.37 c 47.38,14.64 86.4,43.91 105.91,79.45 19.51,35.55 19.51,75.28 0,112.92 -30.66,56.45 -103.12,92 -181.16,92 z"
   fill="#733608"
   fill-rule="nonzero"
   opacity="1"
   stroke="#000000"
   stroke-linecap="round"
   stroke-linejoin="round"
   stroke-width="23"
   vectornator:layerName="path"
   id="path4" />
<path
   d="m 3291.82,3210.38 c -98.51,0 -178.37,60.85 -178.37,135.92 0,75.06 79.86,135.91 178.37,135.91 98.51,0 178.37,-60.85 178.37,-135.91 0,-75.07 -79.86,-135.92 -178.37,-135.92 z"
   fill="#e8d8c4"
   fill-rule="nonzero"
   opacity="1"
   stroke="#000000"
   stroke-linecap="round"
   stroke-linejoin="round"
   stroke-width="23"
   vectornator:layerName="path"
   id="path5" />
<path
   d="m 1988.52,3524.2 c -9.07,-10.63 -13.28,-22.11 -15.07,-34.01 l 7.08,-1087.64 c 0.14,-48.91 83.55,-85.33 185.06,-84.2 74.2,1.86 140.67,24.1 169.89,58.33 9.07,10.63 13.29,22.11 15.07,34.01 l -4.65,1087.21 c 0.14,23.06 -19.74,45.57 -53.96,61.11 -34.22,15.53 -80.34,23.66 -131.1,23.09 -76.63,-1.43 -144.1,-24.85 -172.32,-57.9 z"
   fill="#874107"
   fill-rule="nonzero"
   opacity="1"
   stroke="#000000"
   stroke-linecap="round"
   stroke-linejoin="round"
   stroke-width="23"
   vectornator:layerName="path 1"
   id="path6" />
<path
   d="m 2163.97,3368.41 c -97.43,0 -176.41,47.84 -176.41,106.86 0,59.02 78.98,106.86 176.41,106.86 97.42,0 176.4,-47.84 176.4,-106.86 0,-59.02 -78.98,-106.86 -176.4,-106.86 z"
   fill="#e8d8c4"
   fill-rule="nonzero"
   opacity="1"
   stroke="#000000"
   stroke-linecap="round"
   stroke-linejoin="round"
   stroke-width="23"
   vectornator:layerName="path 2"
   id="path7" />
</g>
<g
   opacity="1"
   vectornator:layerName="Fire"
   id="g10">
<path
   d="m 1844.37,1472.03 c 102.84,-292.17 82.8,-734.162 82.8,-734.162 0,0 273.7,125.049 462.5,469.082 177.72,323.28 10.02,805.04 10.02,805.04 130.79,-142.91 179.3,-285.83 183.52,-457.55 147.14,256.43 260.52,549.75 260.52,847.11 0,367.65 -305.87,665.01 -683.47,665.58 -378.12,-0.57 -683.99,-298.5 -683.99,-666.16 0,-357.86 246.81,-584.33 368.1,-928.94 z"
   fill="#e17a2d"
   fill-rule="nonzero"
   opacity="1"
   stroke="#000000"
   stroke-linecap="round"
   stroke-linejoin="round"
   stroke-width="23"
   vectornator:layerName="path"
   id="path8" />
<path
   d="m 1978.85,2097.85 c 56.43,-177.49 45.35,-444.87 45.35,-444.87 0,0 541.61,450.64 503.11,1009.04 -15.29,222.44 -167.7,403.38 -375.48,403.38 -207.26,0 -375.49,-180.94 -375.49,-403.38 0,-217.25 135.53,-354.98 202.51,-564.17 z"
   fill="#f4e028"
   fill-rule="nonzero"
   opacity="0.8"
   stroke="none"
   vectornator:layerName="path"
   id="path9" />
<path
   d="m 2042.66,2444.77 c 35.86,-112.38 29.01,-281.8 29.01,-281.8 0,0 343.31,285.25 318.53,639.08 -10.02,140.61 -106.53,255.86 -237.85,255.86 -131.31,0 -237.84,-114.68 -237.84,-255.86 0,-137.73 85.96,-224.74 128.15,-357.28 z"
   fill="#ffffff"
   fill-rule="nonzero"
   opacity="0.8"
   stroke="none"
   vectornator:layerName="path"
   id="path10" />
</g>
</g>
</g>
<g
   id="Layer-1-copy"
   vectornator:layerName="Layer 1 copy"
   style="display:none"
   inkscape:label="ring">
<g
   opacity="1"
   vectornator:layerName="Fence"
   id="g12" />
<g
   opacity="1"
   vectornator:layerName="Group 1"
   id="g39">
<g
   opacity="1"
   vectornator:layerName="Leafless Tree 3"
   id="g15">
<path
   d="m 2646.11,1825.49 c -0.04,0 -0.1,0 -0.13,0 l -1135.3,-19.78 -4.26,244.69 1135.28,19.78 c 0.05,0 0.11,0 0.17,0 l 4.88,0.09 0.01,-1.03 c 12.97,-2.26 25.79,-13.36 36,-34.39 23.07,-47.52 24.42,-125.43 3.01,-173.24 -9.47,-21.17 -21.9,-32.48 -34.78,-35.02 l 0.02,-1 -4.9,-0.09 z"
   fill="#663109"
   fill-rule="nonzero"
   opacity="1"
   stroke="#000000"
   stroke-linecap="round"
   stroke-linejoin="round"
   stroke-width="26"
   vectornator:layerName="path"
   id="path12" />
<path
   d="m 1501.48,1986.02 -0.99,56.76 1135.28,19.77 c 0.06,0 0.11,0 0.17,0.01 l 4.88,0.08 0.02,-1.03 c 12.97,-2.26 25.78,-13.35 35.99,-34.38 3.08,-6.34 5.71,-13.33 8.02,-20.6 z"
   fill="#874107"
   fill-rule="nonzero"
   opacity="1"
   stroke="none"
   vectornator:layerName="path"
   id="path13" />
<path
   d="m 1547.3,2015.07 c -23.05,47.49 -59.33,47.06 -80.61,-0.97 -21.29,-48.04 -19.93,-125.99 3.02,-173.25 22.94,-47.26 59.22,-46.81 80.61,0.97 21.4,47.81 20.04,125.74 -3.02,173.25 z"
   fill="#ea9053"
   fill-rule="nonzero"
   opacity="1"
   stroke="#000000"
   stroke-linecap="round"
   stroke-linejoin="round"
   stroke-width="26"
   vectornator:layerName="path"
   id="path14" />
<path
   d="m 1469.7,1840.85 c 22.94,-47.26 59.22,-46.81 80.61,0.97 21.4,47.81 20.04,125.72 -3.02,173.25"
   fill="#d16f26"
   fill-rule="nonzero"
   opacity="1"
   stroke="#000000"
   stroke-linecap="round"
   stroke-linejoin="round"
   stroke-width="26"
   vectornator:layerName="path"
   id="path15" />
</g>
<g
   opacity="1"
   vectornator:layerName="Leafless Tree 1"
   id="g19">
<path
   d="m 1374.05,1880.42 c -0.03,0.01 -0.06,0.03 -0.08,0.04 l -764.523,334.32 98.352,224.91 764.501,-334.32 c 0.04,-0.02 0.08,-0.03 0.12,-0.05 l 3.28,-1.44 -0.41,-0.94 c 7.7,-6.09 11.65,-20.21 9.76,-42.59 -4.29,-50.58 -35.6,-122.19 -69.64,-159.24 -15.06,-16.4 -28.02,-22.88 -37.65,-21.2 l -0.4,-0.92 -3.3,1.44 z"
   fill="#663109"
   fill-rule="nonzero"
   opacity="1"
   stroke="#000000"
   stroke-linecap="round"
   stroke-linejoin="round"
   stroke-width="26"
   vectornator:layerName="path"
   id="path16" />
<path
   d="m 677.88,2382.39 22.817,52.17 764.503,-334.32 c 0.04,-0.01 0.07,-0.03 0.12,-0.05 l 3.28,-1.43 -0.41,-0.95 c 7.7,-6.09 11.65,-20.21 9.76,-42.59 -0.57,-6.75 -1.71,-13.95 -3.18,-21.31 z"
   fill="#874107"
   fill-rule="nonzero"
   opacity="1"
   stroke="none"
   vectornator:layerName="path"
   id="path17" />
<path
   d="m 720.424,2394.71 c 4.28,50.55 -20.067,61.41 -54.105,24.13 -34.046,-37.28 -65.377,-108.93 -69.634,-159.23 -4.263,-50.31 20.096,-61.16 54.105,-24.14 34.027,37.04 65.348,108.67 69.634,159.24 z"
   fill="#ea9053"
   fill-rule="nonzero"
   opacity="1"
   stroke="#000000"
   stroke-linecap="round"
   stroke-linejoin="round"
   stroke-width="26"
   vectornator:layerName="path"
   id="path18" />
<path
   d="m 596.678,2259.61 c -4.263,-50.31 20.096,-61.16 54.105,-24.14 34.027,37.05 65.343,108.66 69.633,159.24"
   fill="#d16f26"
   fill-rule="nonzero"
   opacity="1"
   stroke="#000000"
   stroke-linecap="round"
   stroke-linejoin="round"
   stroke-width="26"
   vectornator:layerName="path"
   id="path19" />
</g>
<g
   opacity="1"
   vectornator:layerName="Group 1"
   id="g29">
<g
   opacity="1"
   vectornator:layerName="Bonfire"
   id="g25">
<path
   d="m 1631.51,2520.74 c -31.43,0 -60.61,-10.15 -72.96,-25.68 -16.84,-21.49 2.24,-45.96 42.65,-54.92 l 898,-199.4 c 10.11,-2.39 20.21,-2.98 30.31,-2.98 31.43,0 60.62,10.15 72.96,25.67 7.86,10.15 7.86,21.49 0,32.24 -7.85,10.15 -23.57,18.5 -42.65,22.68 l -898,199.4 c -10.1,1.79 -20.21,2.99 -30.31,2.99 z"
   fill="#542807"
   fill-rule="nonzero"
   opacity="1"
   stroke="#000000"
   stroke-linecap="round"
   stroke-linejoin="round"
   stroke-width="23"
   vectornator:layerName="path"
   id="path20" />
<path
   d="m 1624.78,2438.35 c -39.68,0 -71.84,17.37 -71.84,38.8 0,21.44 32.16,38.81 71.84,38.81 39.67,0 71.84,-17.37 71.84,-38.81 0,-21.43 -32.17,-38.8 -71.84,-38.8 z"
   fill="#e8d8c4"
   fill-rule="nonzero"
   opacity="1"
   stroke="#000000"
   stroke-linecap="round"
   stroke-linejoin="round"
   stroke-width="23"
   vectornator:layerName="path"
   id="path21" />
<path
   d="m 2529.51,2520.74 c -10.1,0 -20.2,-1.2 -30.31,-2.99 l -898,-199.99 c -40.41,-8.96 -58.37,-33.44 -42.65,-54.93 12.35,-15.52 40.41,-25.67 72.96,-25.67 10.1,0 20.21,1.19 30.31,2.99 l 898,199.39 c 19.08,4.18 34.8,12.54 42.65,22.69 7.86,10.15 7.86,21.49 0,32.24 -12.34,16.12 -41.53,26.27 -72.96,26.27 z"
   fill="#733608"
   fill-rule="nonzero"
   opacity="1"
   stroke="#000000"
   stroke-linecap="round"
   stroke-linejoin="round"
   stroke-width="23"
   vectornator:layerName="path"
   id="path22" />
<path
   d="m 2536.25,2443.13 c -39.68,0 -71.84,17.37 -71.84,38.8 0,21.43 32.16,38.81 71.84,38.81 39.67,0 71.84,-17.38 71.84,-38.81 0,-21.43 -32.17,-38.8 -71.84,-38.8 z"
   fill="#e8d8c4"
   fill-rule="nonzero"
   opacity="1"
   stroke="#000000"
   stroke-linecap="round"
   stroke-linejoin="round"
   stroke-width="23"
   vectornator:layerName="path"
   id="path23" />
<path
   d="m 2011.33,2532.72 c -3.65,-3.03 -5.35,-6.31 -6.07,-9.71 l 2.85,-310.53 c 0.06,-13.97 33.65,-24.37 74.54,-24.05 29.88,0.54 56.65,6.89 68.42,16.66 3.66,3.03 5.35,6.31 6.07,9.71 l -1.87,310.42 c 0.05,6.58 -7.95,13.01 -21.73,17.44 -13.78,4.44 -32.36,6.76 -52.8,6.6 -30.87,-0.41 -58.04,-7.1 -69.41,-16.54 z"
   fill="#874107"
   fill-rule="nonzero"
   opacity="1"
   stroke="#000000"
   stroke-linecap="round"
   stroke-linejoin="round"
   stroke-width="23"
   vectornator:layerName="path 1"
   id="path24" />
<path
   d="m 2081.99,2488.24 c -39.23,0 -71.04,13.66 -71.04,30.52 0,16.85 31.81,30.51 71.04,30.51 39.24,0 71.05,-13.66 71.05,-30.51 0,-16.86 -31.81,-30.52 -71.05,-30.52 z"
   fill="#e8d8c4"
   fill-rule="nonzero"
   opacity="1"
   stroke="#000000"
   stroke-linecap="round"
   stroke-linejoin="round"
   stroke-width="23"
   vectornator:layerName="path 2"
   id="path25" />
</g>
<g
   opacity="1"
   vectornator:layerName="Fire"
   id="g28">
<path
   d="m 1910.13,1518.13 c 58.34,-165.77 46.97,-416.55 46.97,-416.55 0,0 155.3,70.95 262.42,266.15 100.83,183.42 5.68,456.76 5.68,456.76 74.21,-81.09 101.73,-162.17 104.13,-259.61 83.48,145.5 147.81,311.92 147.81,480.63 0,208.6 -173.55,377.31 -387.78,377.64 -214.54,-0.33 -388.09,-169.37 -388.09,-377.97 0,-203.04 140.04,-331.53 208.86,-527.05 z"
   fill="#e17a2d"
   fill-rule="nonzero"
   opacity="1"
   stroke="#000000"
   stroke-linecap="round"
   stroke-linejoin="round"
   stroke-width="23"
   vectornator:layerName="path"
   id="path26" />
<path
   d="m 1986.43,1873.2 c 32.01,-100.7 25.73,-252.41 25.73,-252.41 0,0 307.29,255.68 285.45,572.51 -8.68,126.2 -95.15,228.87 -213.04,228.87 -117.59,0 -213.04,-102.67 -213.04,-228.87 0,-123.27 76.9,-201.41 114.9,-320.1 z"
   fill="#f4e028"
   fill-rule="nonzero"
   opacity="0.8"
   stroke="none"
   vectornator:layerName="path"
   id="path27" />
<path
   d="m 2022.63,2070.03 c 20.35,-63.75 16.46,-159.88 16.46,-159.88 0,0 194.79,161.84 180.72,362.6 -5.68,79.77 -60.44,145.17 -134.94,145.17 -74.51,0 -134.95,-65.07 -134.95,-145.17 0,-78.15 48.77,-127.52 72.71,-202.72 z"
   fill="#ffffff"
   fill-rule="nonzero"
   opacity="0.8"
   stroke="none"
   vectornator:layerName="path"
   id="path28" />
</g>
</g>
<g
   opacity="1"
   vectornator:layerName="Leafless Tree 2"
   id="g32">
<path
   d="m 2692.07,2085.13 c 0.03,0.02 0.06,0.04 0.08,0.05 l 737.37,380.1 117.96,-228.83 -737.36,-380.09 c -0.03,-0.02 -0.06,-0.04 -0.11,-0.06 l -3.16,-1.63 -0.5,0.96 c -9.59,-2.01 -23.24,4.35 -39.85,20.88 -37.54,37.36 -75.1,110.22 -83.52,162.01 -3.73,22.93 -0.88,37.54 6.4,44.03 l -0.48,0.93 3.18,1.64 z"
   fill="#663109"
   fill-rule="nonzero"
   opacity="1"
   stroke="#000000"
   stroke-linecap="round"
   stroke-linejoin="round"
   stroke-width="26"
   vectornator:layerName="path"
   id="path29" />
<path
   d="m 2700.96,2011.98 c 0,0 -30.35,54.53 4.34,73.26 39.78,21.49 710.23,365.15 710.23,365.15 0.04,0.01 0.07,0.03 0.11,0.05 l 3.17,1.63 0.5,-0.96 c 9.59,2.01 23.24,-4.35 39.85,-20.88 5.01,-4.99 10.03,-10.72 14.97,-16.83 z"
   fill="#874107"
   fill-rule="nonzero"
   opacity="1"
   stroke="none"
   vectornator:layerName="path"
   id="path30" />
<path
   d="m 3466.18,2246.44 c 47.38,-37.88 89.7,-24.35 94.05,30.07 4.35,54.43 -30.65,129.78 -77.8,167.47 -47.13,37.69 -89.46,24.15 -94.04,-30.07 -4.58,-54.25 30.41,-129.58 77.79,-167.47 z"
   fill="#ea9053"
   fill-rule="nonzero"
   opacity="1"
   stroke="#000000"
   stroke-linecap="round"
   stroke-linejoin="round"
   stroke-width="26"
   vectornator:layerName="path"
   id="path31" />
<path
   d="m 3467.97,2450.24 c -53.19,32.4 -77.41,1.86 -75.97,-53.26 1.43,-55.16 41.78,-132.75 95.26,-165.33"
   fill="#d16f26"
   fill-rule="nonzero"
   opacity="1"
   stroke="#000000"
   stroke-linecap="round"
   stroke-linejoin="round"
   stroke-width="26"
   vectornator:layerName="path"
   id="path32" />
</g>
<g
   opacity="1"
   vectornator:layerName="Leafless Tree"
   id="g35">
<path
   d="m 3436.26,2468.01 c -0.05,0 -0.11,0.01 -0.14,0.02 l -1265.9,200.95 58.81,370.43 1265.87,-200.94 c 0.06,-0.01 0.12,-0.02 0.19,-0.03 l 5.43,-0.87 -0.24,-1.55 c 13.81,-6.05 25.16,-25.42 31.04,-59.25 13.28,-76.47 -5.44,-194.41 -41.63,-262.27 -16.02,-30.05 -32.77,-44.61 -47.73,-45.83 l -0.24,-1.51 -5.46,0.87 z"
   fill="#663109"
   fill-rule="nonzero"
   opacity="1"
   stroke="#000000"
   stroke-linecap="round"
   stroke-linejoin="round"
   stroke-width="26"
   vectornator:layerName="path"
   id="path33" />
<path
   d="m 2265.26,2977.73 c -13.28,76.42 -53.67,83.14 -89.77,14.92 -36.12,-68.22 -54.85,-186.22 -41.64,-262.27 13.2,-76.04 53.62,-82.74 89.77,-14.92 36.18,67.86 54.91,185.82 41.64,262.27 z"
   fill="#ea9053"
   fill-rule="nonzero"
   opacity="1"
   stroke="#000000"
   stroke-linecap="round"
   stroke-linejoin="round"
   stroke-width="26"
   vectornator:layerName="path"
   id="path34" />
<path
   d="m 2133.84,2730.38 c 13.2,-76.04 53.61,-82.74 89.77,-14.92 36.18,67.86 54.9,185.8 41.64,262.27"
   fill="#d16f26"
   fill-rule="nonzero"
   opacity="1"
   stroke="#000000"
   stroke-linecap="round"
   stroke-linejoin="round"
   stroke-width="26"
   vectornator:layerName="path"
   id="path35" />
</g>
<g
   opacity="1"
   vectornator:layerName="Leafless Tree 4"
   id="g38">
<path
   d="m 715.901,2724.85 c 0.046,0.01 0.103,0.02 0.138,0.03 l 1228.121,314.71 89.54,-349.42 -1228.099,-314.7 c -0.057,-0.02 -0.114,-0.03 -0.183,-0.05 l -5.275,-1.35 -0.376,1.46 c -14.893,-0.03 -32.685,12.63 -51.084,40.18 -41.584,62.25 -70.093,173.5 -63.394,247.39 2.957,32.71 12.561,52.05 25.685,58.94 l -0.366,1.43 5.298,1.36 z"
   fill="#663109"
   fill-rule="nonzero"
   opacity="1"
   stroke="#000000"
   stroke-linecap="round"
   stroke-linejoin="round"
   stroke-width="26"
   vectornator:layerName="path"
   id="path36" />
<path
   d="m 1965.88,2727.63 c 47.68,-60.64 96.97,-48.31 109.54,27.41 12.58,75.73 -15.94,187.05 -63.39,247.39 -47.44,60.36 -96.74,48 -109.55,-27.4 -12.8,-75.45 15.71,-186.73 63.4,-247.4 z"
   fill="#ea9053"
   fill-rule="nonzero"
   opacity="1"
   stroke="#000000"
   stroke-linecap="round"
   stroke-linejoin="round"
   stroke-width="26"
   vectornator:layerName="path"
   id="path37" />
<path
   d="m 2012.04,3002.44 c -47.44,60.35 -96.74,48 -109.54,-27.41 -12.81,-75.45 15.7,-186.71 63.39,-247.39"
   fill="#d16f26"
   fill-rule="nonzero"
   opacity="1"
   stroke="#000000"
   stroke-linecap="round"
   stroke-linejoin="round"
   stroke-width="26"
   vectornator:layerName="path"
   id="path38" />
</g>
</g>
</g>
<g
   id="Layer-1-copy-copy"
   vectornator:layerName="Layer 1 copy copy"
   visibility="hidden"
   style="display:none"
   inkscape:label="vindskyddeld">
<g
   opacity="1"
   vectornator:layerName="Fence"
   id="g40" />
<g
   opacity="1"
   vectornator:layerName="Log Cabin"
   id="g45">
<path
   d="m 3935.88,1195.89 -1746.04,-10.35 -1746.041,10.35 v 1460 H 3935.88 Z"
   fill="#874107"
   fill-rule="nonzero"
   opacity="1"
   stroke="#000000"
   stroke-linecap="round"
   stroke-linejoin="round"
   stroke-width="26"
   vectornator:layerName="path"
   id="path40" />
<path
   d="M 443.799,2217.89 H 3935.88 v 146 H 443.799 Z m 0,-365 H 3935.88 v 146 H 443.799 Z m 0,-365 H 3935.88 v 146 H 443.799 Z m 0,-365 H 3935.88 v 146 H 443.799 Z"
   fill="#663109"
   fill-rule="nonzero"
   opacity="1"
   stroke="#000000"
   stroke-linecap="round"
   stroke-linejoin="round"
   stroke-width="26"
   vectornator:layerName="path"
   id="path41" />
<path
   d="m 2138.4,1265.34 1848.59,3.55 107.47,73 V 975.314 L 2160,968.922 225.544,975.314 v 366.576 l 107.47,-73 z"
   fill="#663109"
   fill-rule="nonzero"
   opacity="1"
   stroke="#000000"
   stroke-linecap="round"
   stroke-linejoin="round"
   stroke-width="26"
   vectornator:layerName="path"
   id="path42" />
<path
   d="m 408.043,2290.89 c -100.791,0 -182.499,81.7 -182.499,182.5 0,100.79 81.708,182.5 182.499,182.5 100.792,0 182.5,-81.71 182.5,-182.5 0,-100.8 -81.708,-182.5 -182.5,-182.5 z m 0,-365 c -100.791,0 -182.499,81.71 -182.499,182.5 0,100.79 81.708,182.5 182.499,182.5 100.792,0 182.5,-81.71 182.5,-182.5 0,-100.79 -81.708,-182.5 -182.5,-182.5 z m 0,-365 c -100.791,0 -182.499,81.71 -182.499,182.5 0,100.79 81.708,182.5 182.499,182.5 100.792,0 182.5,-81.71 182.5,-182.5 0,-100.79 -81.708,-182.5 -182.5,-182.5 z m 0,-365 c -100.791,0 -182.499,81.71 -182.499,182.5 0,100.79 81.708,182.5 182.499,182.5 100.792,0 182.5,-81.71 182.5,-182.5 0,-100.79 -81.708,-182.5 -182.5,-182.5 z"
   fill="#663109"
   fill-rule="nonzero"
   opacity="1"
   stroke="#000000"
   stroke-linecap="round"
   stroke-linejoin="round"
   stroke-width="26"
   vectornator:layerName="path"
   id="path43" />
<path
   d="m 3911.96,2290.89 c -100.8,0 -182.5,81.7 -182.5,182.5 0,100.79 81.7,182.5 182.5,182.5 100.79,0 182.5,-81.71 182.5,-182.5 0,-100.8 -81.71,-182.5 -182.5,-182.5 z m 0,-365 c -100.8,0 -182.5,81.71 -182.5,182.5 0,100.79 81.7,182.5 182.5,182.5 100.79,0 182.5,-81.71 182.5,-182.5 0,-100.79 -81.71,-182.5 -182.5,-182.5 z m 0,-365 c -100.8,0 -182.5,81.71 -182.5,182.5 0,100.79 81.7,182.5 182.5,182.5 100.79,0 182.5,-81.71 182.5,-182.5 0,-100.79 -81.71,-182.5 -182.5,-182.5 z m 0,-365 c -100.8,0 -182.5,81.71 -182.5,182.5 0,100.79 81.7,182.5 182.5,182.5 100.79,0 182.5,-81.71 182.5,-182.5 0,-100.79 -81.71,-182.5 -182.5,-182.5 z"
   fill="#663109"
   fill-rule="nonzero"
   opacity="1"
   stroke="#000000"
   stroke-linecap="round"
   stroke-linejoin="round"
   stroke-width="26"
   vectornator:layerName="path 1"
   id="path44" />
<path
   d="M 921.696,1489.09 H 3457.99 v 879.79 H 921.696 Z"
   fill="#2d211c"
   fill-rule="nonzero"
   opacity="1"
   stroke="#000000"
   stroke-linecap="round"
   stroke-linejoin="round"
   stroke-width="26"
   vectornator:layerName="path"
   id="path45" />
</g>
<g
   opacity="1"
   vectornator:layerName="Group 2"
   id="g55">
<g
   opacity="1"
   vectornator:layerName="Bonfire"
   id="g51">
<path
   d="m 1426.62,3491.7 c -51.35,0 -99.03,-19.95 -119.21,-50.45 -27.5,-42.24 3.67,-90.35 69.69,-107.95 l 1467.14,-391.9 c 16.5,-4.7 33.01,-5.87 49.51,-5.87 51.35,0 99.04,19.95 119.21,50.45 12.84,19.95 12.84,42.24 0,63.37 -12.84,19.94 -38.51,36.37 -69.69,44.58 l -1467.13,391.9 c -16.51,3.52 -33.02,5.87 -49.52,5.87 z"
   fill="#542807"
   fill-rule="nonzero"
   opacity="1"
   stroke="#000000"
   stroke-linecap="round"
   stroke-linejoin="round"
   stroke-width="23"
   vectornator:layerName="path"
   id="path46" />
<path
   d="m 1415.62,3329.78 c -64.83,0 -117.38,34.14 -117.38,76.27 0,42.12 52.55,76.26 117.38,76.26 64.82,0 117.37,-34.14 117.37,-76.26 0,-42.13 -52.55,-76.27 -117.37,-76.27 z"
   fill="#e8d8c4"
   fill-rule="nonzero"
   opacity="1"
   stroke="#000000"
   stroke-linecap="round"
   stroke-linejoin="round"
   stroke-width="23"
   vectornator:layerName="path"
   id="path47" />
<path
   d="m 2893.75,3491.7 c -16.5,0 -33.01,-2.35 -49.51,-5.87 L 1377.1,3092.76 c -66.02,-17.6 -95.36,-65.71 -69.69,-107.95 20.18,-30.51 66.03,-50.45 119.21,-50.45 16.5,0 33.01,2.34 49.52,5.86 l 1467.13,391.9 c 31.18,8.22 56.85,24.64 69.69,44.59 12.84,19.95 12.84,42.24 0,63.36 -20.17,31.68 -67.86,51.63 -119.21,51.63 z"
   fill="#733608"
   fill-rule="nonzero"
   opacity="1"
   stroke="#000000"
   stroke-linecap="round"
   stroke-linejoin="round"
   stroke-width="23"
   vectornator:layerName="path"
   id="path48" />
<path
   d="m 2904.76,3339.16 c -64.82,0 -117.37,34.15 -117.37,76.27 0,42.12 52.55,76.27 117.37,76.27 64.82,0 117.37,-34.15 117.37,-76.27 0,-42.12 -52.55,-76.27 -117.37,-76.27 z"
   fill="#e8d8c4"
   fill-rule="nonzero"
   opacity="1"
   stroke="#000000"
   stroke-linecap="round"
   stroke-linejoin="round"
   stroke-width="23"
   vectornator:layerName="path"
   id="path49" />
<path
   d="m 2047.16,3515.26 c -5.96,-5.96 -8.74,-12.4 -9.91,-19.08 l 4.66,-610.34 c 0.09,-27.45 54.97,-47.89 121.77,-47.25 48.83,1.04 92.56,13.52 111.79,32.73 5.97,5.96 8.74,12.41 9.92,19.09 l -3.06,610.1 c 0.09,12.94 -12.99,25.57 -35.51,34.29 -22.52,8.72 -52.87,13.28 -86.26,12.96 -50.43,-0.81 -94.83,-13.95 -113.4,-32.5 z"
   fill="#874107"
   fill-rule="nonzero"
   opacity="1"
   stroke="#000000"
   stroke-linecap="round"
   stroke-linejoin="round"
   stroke-width="23"
   vectornator:layerName="path 1"
   id="path50" />
<path
   d="m 2162.61,3427.84 c -64.11,0 -116.08,26.85 -116.08,59.97 0,33.12 51.97,59.97 116.08,59.97 64.11,0 116.08,-26.85 116.08,-59.97 0,-33.12 -51.97,-59.97 -116.08,-59.97 z"
   fill="#e8d8c4"
   fill-rule="nonzero"
   opacity="1"
   stroke="#000000"
   stroke-linecap="round"
   stroke-linejoin="round"
   stroke-width="23"
   vectornator:layerName="path 2"
   id="path51" />
</g>
<g
   opacity="1"
   vectornator:layerName="Fire"
   id="g54">
<path
   d="m 1952.31,2247.09 c 67.67,-192.25 54.48,-483.09 54.48,-483.09 0,0 180.1,82.28 304.34,308.66 116.94,212.72 6.59,529.73 6.59,529.73 86.06,-94.04 117.99,-188.08 120.76,-301.08 96.82,168.74 171.43,361.75 171.43,557.41 0,241.93 -201.27,437.59 -449.74,437.97 -248.81,-0.38 -450.08,-196.42 -450.08,-438.34 0,-235.48 162.41,-384.51 242.22,-611.26 z"
   fill="#e17a2d"
   fill-rule="nonzero"
   opacity="1"
   stroke="#000000"
   stroke-linecap="round"
   stroke-linejoin="round"
   stroke-width="23"
   vectornator:layerName="path"
   id="path52" />
<path
   d="m 2040.8,2658.89 c 37.13,-116.79 29.84,-292.74 29.84,-292.74 0,0 356.39,296.53 331.06,663.97 -10.07,146.37 -110.35,265.43 -247.08,265.43 -136.38,0 -247.08,-119.06 -247.08,-265.43 0,-142.96 89.19,-233.58 133.26,-371.23 z"
   fill="#f4e028"
   fill-rule="nonzero"
   opacity="0.8"
   stroke="none"
   vectornator:layerName="path"
   id="path53" />
<path
   d="m 2082.79,2887.16 c 23.6,-73.94 19.08,-185.42 19.08,-185.42 0,0 225.91,187.7 209.6,420.52 -6.59,92.53 -70.09,168.36 -156.5,168.36 -86.41,0 -156.51,-75.45 -156.51,-168.36 0,-90.62 56.57,-147.88 84.33,-235.1 z"
   fill="#ffffff"
   fill-rule="nonzero"
   opacity="0.8"
   stroke="none"
   vectornator:layerName="path"
   id="path54" />
</g>
</g>
</g>
<g
   id="Layer-1-copy-copy-copy"
   vectornator:layerName="Layer 1 copy copy copy"
   visibility="hidden"
   style="display:none"
   inkscape:label="vindskydd">
<g
   opacity="1"
   vectornator:layerName="Fence"
   id="g56" />
<g
   opacity="1"
   vectornator:layerName="Log Cabin"
   id="g61">
<path
   d="M 3935.88,1543.49 2189.84,1533.13 443.799,1543.49 V 3003.48 H 3935.88 Z"
   fill="#874107"
   fill-rule="nonzero"
   opacity="1"
   stroke="#000000"
   stroke-linecap="round"
   stroke-linejoin="round"
   stroke-width="26"
   vectornator:layerName="path"
   id="path56" />
<path
   d="M 443.799,2565.48 H 3935.88 v 146 H 443.799 Z m 0,-365 H 3935.88 v 146 H 443.799 Z m 0,-364.99 H 3935.88 v 146 H 443.799 Z m 0,-365 H 3935.88 v 146 H 443.799 Z"
   fill="#663109"
   fill-rule="nonzero"
   opacity="1"
   stroke="#000000"
   stroke-linecap="round"
   stroke-linejoin="round"
   stroke-width="26"
   vectornator:layerName="path"
   id="path57" />
<path
   d="m 2138.4,1612.93 1848.59,3.56 107.47,73 V 1322.91 L 2160,1316.52 225.544,1322.91 v 366.58 l 107.47,-73 z"
   fill="#663109"
   fill-rule="nonzero"
   opacity="1"
   stroke="#000000"
   stroke-linecap="round"
   stroke-linejoin="round"
   stroke-width="26"
   vectornator:layerName="path"
   id="path58" />
<path
   d="m 408.043,2638.48 c -100.791,0 -182.499,81.71 -182.499,182.5 0,100.79 81.708,182.5 182.499,182.5 100.792,0 182.5,-81.71 182.5,-182.5 0,-100.79 -81.708,-182.5 -182.5,-182.5 z m 0,-365 c -100.791,0 -182.499,81.71 -182.499,182.5 0,100.8 81.708,182.5 182.499,182.5 100.792,0 182.5,-81.7 182.5,-182.5 0,-100.79 -81.708,-182.5 -182.5,-182.5 z m 0,-364.99 c -100.791,0 -182.499,81.7 -182.499,182.49 0,100.8 81.708,182.5 182.499,182.5 100.792,0 182.5,-81.7 182.5,-182.5 0,-100.79 -81.708,-182.49 -182.5,-182.49 z m 0,-365 c -100.791,0 -182.499,81.7 -182.499,182.5 0,100.79 81.708,182.5 182.499,182.5 100.792,0 182.5,-81.71 182.5,-182.5 0,-100.8 -81.708,-182.5 -182.5,-182.5 z"
   fill="#663109"
   fill-rule="nonzero"
   opacity="1"
   stroke="#000000"
   stroke-linecap="round"
   stroke-linejoin="round"
   stroke-width="26"
   vectornator:layerName="path"
   id="path59" />
<path
   d="m 3911.96,2638.48 c -100.8,0 -182.5,81.71 -182.5,182.5 0,100.79 81.7,182.5 182.5,182.5 100.79,0 182.5,-81.71 182.5,-182.5 0,-100.79 -81.71,-182.5 -182.5,-182.5 z m 0,-365 c -100.8,0 -182.5,81.71 -182.5,182.5 0,100.8 81.7,182.5 182.5,182.5 100.79,0 182.5,-81.7 182.5,-182.5 0,-100.79 -81.71,-182.5 -182.5,-182.5 z m 0,-364.99 c -100.8,0 -182.5,81.7 -182.5,182.49 0,100.8 81.7,182.5 182.5,182.5 100.79,0 182.5,-81.7 182.5,-182.5 0,-100.79 -81.71,-182.49 -182.5,-182.49 z m 0,-365 c -100.8,0 -182.5,81.7 -182.5,182.5 0,100.79 81.7,182.5 182.5,182.5 100.79,0 182.5,-81.71 182.5,-182.5 0,-100.8 -81.71,-182.5 -182.5,-182.5 z"
   fill="#663109"
   fill-rule="nonzero"
   opacity="1"
   stroke="#000000"
   stroke-linecap="round"
   stroke-linejoin="round"
   stroke-width="26"
   vectornator:layerName="path 1"
   id="path60" />
<path
   d="M 921.696,1836.68 H 3457.99 v 879.8 H 921.696 Z"
   fill="#2d211c"
   fill-rule="nonzero"
   opacity="1"
   stroke="#000000"
   stroke-linecap="round"
   stroke-linejoin="round"
   stroke-width="26"
   vectornator:layerName="path"
   id="path61" />
</g>
</g>
<g
   id="Layer-1-copy-copy-copy_2"
   vectornator:layerName="Layer 1 copy copy copy"
   visibility="hidden"
   style="display:none"
   inkscape:label="eldtak">
<g
   opacity="1"
   vectornator:layerName="Fence"
   id="g62" />
<g
   opacity="1"
   vectornator:layerName="Log Cabin"
   id="g68">
<path
   d="M 202.513,2735.84 1901.01,1378.3 2065.55,1584.16 367.051,2941.7 Z"
   fill="#663109"
   fill-rule="nonzero"
   opacity="1"
   stroke="#000000"
   stroke-linecap="round"
   stroke-linejoin="round"
   stroke-width="26"
   vectornator:layerName="path 4"
   id="path62" />
<path
   d="M 4117.49,2735.84 2418.99,1378.3 2254.45,1584.16 3952.95,2941.7 Z"
   fill="#663109"
   fill-rule="nonzero"
   opacity="1"
   stroke="#000000"
   stroke-linecap="round"
   stroke-linejoin="round"
   stroke-width="26"
   vectornator:layerName="path 5"
   id="path63" />
<path
   d="M 3899.99,1631.18 2160,762.735 420.012,1631.18 Z"
   fill="#874107"
   fill-rule="nonzero"
   opacity="1"
   stroke="#000000"
   stroke-linecap="round"
   stroke-linejoin="round"
   stroke-width="26"
   vectornator:layerName="path"
   id="path64" />
<path
   d="M 420.012,1558.44 H 3899.99 v 145.49 H 420.012 Z M 855.009,1194.7 H 3464.99 v 145.5 H 855.009 Z"
   fill="#663109"
   fill-rule="nonzero"
   opacity="1"
   stroke="#000000"
   stroke-linecap="round"
   stroke-linejoin="round"
   stroke-width="26"
   vectornator:layerName="path"
   id="path65" />
<path
   d="m 202.513,3779.59 3.508,-2174.35 263.537,0.43 -3.508,2174.34 z"
   fill="#663109"
   fill-rule="nonzero"
   opacity="1"
   stroke="#000000"
   stroke-linecap="round"
   stroke-linejoin="round"
   stroke-width="26"
   vectornator:layerName="path 2"
   id="path66" />
<path
   d="m 3850.44,3779.59 3.51,-2174.35 263.54,0.43 -3.51,2174.34 z"
   fill="#663109"
   fill-rule="nonzero"
   opacity="1"
   stroke="#000000"
   stroke-linecap="round"
   stroke-linejoin="round"
   stroke-width="26"
   vectornator:layerName="path 3"
   id="path67" />
<path
   d="m 2138.14,830.972 1870.6,872.958 108.75,72.75 V 1485.69 L 2160,539.986 202.513,1485.69 v 290.99 l 108.75,-72.75 z"
   fill="#663109"
   fill-rule="nonzero"
   opacity="1"
   stroke="#000000"
   stroke-linecap="round"
   stroke-linejoin="round"
   stroke-width="26"
   vectornator:layerName="path"
   id="path68" />
</g>
<g
   opacity="1"
   vectornator:layerName="Group 2"
   id="g78">
<g
   opacity="1"
   vectornator:layerName="Bonfire"
   id="g74">
<path
   d="m 1416.33,3730.88 c -52.07,0 -100.42,-17.47 -120.87,-44.2 -27.9,-37.01 3.72,-79.16 70.66,-94.58 l 1487.71,-343.37 c 16.74,-4.12 33.48,-5.14 50.22,-5.14 52.07,0 100.42,17.47 120.87,44.2 13.02,17.48 13.02,37.01 0,55.52 -13.02,17.47 -39.05,31.87 -70.66,39.06 l -1487.72,343.37 c -16.73,3.09 -33.47,5.14 -50.21,5.14 z"
   fill="#542807"
   fill-rule="nonzero"
   opacity="1"
   stroke="#000000"
   stroke-linecap="round"
   stroke-linejoin="round"
   stroke-width="23"
   vectornator:layerName="path"
   id="path69" />
<path
   d="m 1405.18,3589.01 c -65.73,0 -119.02,29.92 -119.02,66.83 0,36.9 53.29,66.82 119.02,66.82 65.73,0 119.01,-29.92 119.01,-66.82 0,-36.91 -53.28,-66.83 -119.01,-66.83 z"
   fill="#e8d8c4"
   fill-rule="nonzero"
   opacity="1"
   stroke="#000000"
   stroke-linecap="round"
   stroke-linejoin="round"
   stroke-width="23"
   vectornator:layerName="path"
   id="path70" />
<path
   d="m 2904.05,3730.88 c -16.74,0 -33.48,-2.05 -50.22,-5.14 l -1487.71,-344.4 c -66.94,-15.42 -96.7,-57.57 -70.66,-94.58 20.45,-26.73 66.94,-44.2 120.87,-44.2 16.74,0 33.48,2.05 50.21,5.14 l 1487.72,343.37 c 31.61,7.19 57.64,21.59 70.66,39.06 13.02,17.48 13.02,37.01 0,55.52 -20.45,27.76 -68.8,45.23 -120.87,45.23 z"
   fill="#733608"
   fill-rule="nonzero"
   opacity="1"
   stroke="#000000"
   stroke-linecap="round"
   stroke-linejoin="round"
   stroke-width="23"
   vectornator:layerName="path"
   id="path71" />
<path
   d="m 2915.2,3597.24 c -65.73,0 -119.01,29.91 -119.01,66.82 0,36.91 53.28,66.82 119.01,66.82 65.73,0 119.02,-29.91 119.02,-66.82 0,-36.91 -53.29,-66.82 -119.02,-66.82 z"
   fill="#e8d8c4"
   fill-rule="nonzero"
   opacity="1"
   stroke="#000000"
   stroke-linecap="round"
   stroke-linejoin="round"
   stroke-width="23"
   vectornator:layerName="path"
   id="path72" />
<path
   d="m 2045.58,3751.53 c -6.05,-5.22 -8.86,-10.87 -10.05,-16.72 l 4.72,-534.76 c 0.09,-24.05 55.75,-41.96 123.48,-41.4 49.51,0.91 93.86,11.85 113.36,28.68 6.05,5.22 8.86,10.87 10.06,16.72 l -3.11,534.55 c 0.09,11.34 -13.17,22.41 -36,30.04 -22.83,7.64 -53.61,11.64 -87.48,11.36 -51.13,-0.71 -96.15,-12.22 -114.98,-28.47 z"
   fill="#874107"
   fill-rule="nonzero"
   opacity="1"
   stroke="#000000"
   stroke-linecap="round"
   stroke-linejoin="round"
   stroke-width="23"
   vectornator:layerName="path 1"
   id="path73" />
<path
   d="m 2162.65,3674.93 c -65.01,0 -117.71,23.53 -117.71,52.54 0,29.02 52.7,52.54 117.71,52.54 65,0 117.7,-23.52 117.7,-52.54 0,-29.01 -52.7,-52.54 -117.7,-52.54 z"
   fill="#e8d8c4"
   fill-rule="nonzero"
   opacity="1"
   stroke="#000000"
   stroke-linecap="round"
   stroke-linejoin="round"
   stroke-width="23"
   vectornator:layerName="path 2"
   id="path74" />
</g>
<g
   opacity="1"
   vectornator:layerName="Fire"
   id="g77">
<path
   d="m 1949.4,2466.12 c 68.61,-194.94 55.24,-489.86 55.24,-489.86 0,0 182.63,83.43 308.61,312.99 118.58,215.71 6.68,537.16 6.68,537.16 87.27,-95.36 119.64,-190.72 122.46,-305.3 98.17,171.1 173.83,366.82 173.83,565.23 0,245.32 -204.1,443.72 -456.04,444.11 -252.3,-0.39 -456.4,-199.18 -456.4,-444.5 0,-238.78 164.68,-389.89 245.62,-619.83 z"
   fill="#e17a2d"
   fill-rule="nonzero"
   opacity="1"
   stroke="#000000"
   stroke-linecap="round"
   stroke-linejoin="round"
   stroke-width="23"
   vectornator:layerName="path"
   id="path75" />
<path
   d="m 2039.13,2883.7 c 37.65,-118.43 30.26,-296.84 30.26,-296.84 0,0 361.38,300.69 335.7,673.28 -10.21,148.42 -111.9,269.15 -250.54,269.15 -138.29,0 -250.55,-120.73 -250.55,-269.15 0,-144.96 90.44,-236.86 135.13,-376.44 z"
   fill="#f4e028"
   fill-rule="nonzero"
   opacity="0.8"
   stroke="none"
   vectornator:layerName="path"
   id="path76" />
<path
   d="m 2081.71,3115.18 c 23.92,-74.98 19.35,-188.03 19.35,-188.03 0,0 229.08,190.33 212.54,426.42 -6.69,93.82 -71.08,170.72 -158.7,170.72 -87.62,0 -158.7,-76.51 -158.7,-170.72 0,-91.9 57.36,-149.96 85.51,-238.39 z"
   fill="#ffffff"
   fill-rule="nonzero"
   opacity="0.8"
   stroke="none"
   vectornator:layerName="path"
   id="path77" />
</g>
</g>
</g>
<g
   id="Layer-1"
   vectornator:layerName="Layer 1"
   visibility="hidden"
   style="display:none"
   inkscape:label="filter">
<g
   opacity="1"
   vectornator:layerName="Group 1"
   id="g107">
<g
   opacity="1"
   vectornator:layerName="Group 1"
   id="g106">
<g
   opacity="1"
   vectornator:layerName="Group 1"
   id="g80">
<g
   opacity="1"
   vectornator:layerName="Filter"
   id="g79">
<path
   d="m 2759.54,3152.55 c -5.69,8.4 -14.59,13.33 -24.02,13.31 l -1138.51,-1.7 c -8.97,-0.02 -17.47,-4.51 -23.16,-12.25 L 608.005,1384.48 c -16.111,-21.91 -2.108,-54.87 23.288,-54.82 0,0 513.027,-182.05 1524.567,-181.26 895.04,0.7 1527.77,188.05 1527.77,188.05 24.78,0.06 38.84,31.69 23.9,53.76 z"
   fill="#e7bd74"
   fill-rule="nonzero"
   opacity="1"
   stroke="#000000"
   stroke-linecap="butt"
   stroke-linejoin="round"
   stroke-width="23"
   vectornator:layerName="path"
   id="path78" />
<path
   d="m 3564.25,1354.31 c -29.37,-0.07 -53.45,20.17 -69.93,44.49 l -850.59,1577.22 -950.75,-1.05 c -62.58,-0.1 -106.78,49.25 -107.09,111.83 l 0.04,45.34 c -0.04,8.33 5.41,15.34 13.73,15.35 l 1136.05,1.62 c 5.72,0 10.65,-4.76 13.67,-9.18 l 938.31,-1750.58 c 15.2,-22.22 12.43,-35.33 -14.5,-35.4 z"
   fill="#d8af68"
   fill-rule="nonzero"
   opacity="1"
   stroke="none"
   vectornator:layerName="path"
   id="path79" />
</g>
</g>
<path
   d="m 1691.13,3064.36 c 0.11,-55.02 5.48,-56.33 12.1,-56.32 6.62,0.02 12.42,-0.19 11.87,56.37 -0.55,56.34 -5.47,56.33 -12.09,56.32 -6.62,-0.02 -11.99,-0.03 -11.88,-56.37 z"
   fill="#c09752"
   fill-rule="nonzero"
   opacity="1"
   stroke="none"
   vectornator:layerName="Oval 27"
   id="path80" />
<path
   d="m 1800.21,3064.44 c 0.11,-55.01 5.48,-56.32 12.09,-56.31 6.62,0.01 12.43,-0.19 11.88,56.37 -0.55,56.34 -5.48,56.33 -12.1,56.31 -6.61,-0.01 -11.98,-0.02 -11.87,-56.37 z"
   fill="#c09752"
   fill-rule="nonzero"
   opacity="1"
   stroke="none"
   vectornator:layerName="Oval 28"
   id="path81" />
<path
   d="m 1909.29,3064.53 c 0.1,-55.02 5.47,-56.33 12.09,-56.31 6.62,0.01 12.42,-0.2 11.87,56.36 -0.54,56.34 -5.47,56.33 -12.09,56.32 -6.62,-0.02 -11.98,-0.03 -11.87,-56.37 z"
   fill="#c09752"
   fill-rule="nonzero"
   opacity="1"
   stroke="none"
   vectornator:layerName="Oval 29"
   id="path82" />
<path
   d="m 2018.36,3064.62 c 0.11,-55.02 5.48,-56.33 12.1,-56.32 6.62,0.02 12.42,-0.19 11.87,56.37 -0.55,56.34 -5.47,56.33 -12.09,56.31 -6.62,-0.01 -11.99,-0.02 -11.88,-56.36 z"
   fill="#c09752"
   fill-rule="nonzero"
   opacity="1"
   stroke="none"
   vectornator:layerName="Oval 30"
   id="path83" />
<path
   d="m 2127.44,3064.7 c 0.11,-55.02 5.48,-56.33 12.09,-56.31 6.62,0.01 12.43,-0.2 11.88,56.36 -0.55,56.34 -5.48,56.33 -12.1,56.32 -6.61,-0.02 -11.98,-0.03 -11.87,-56.37 z"
   fill="#c09752"
   fill-rule="nonzero"
   opacity="1"
   stroke="none"
   vectornator:layerName="Oval 31"
   id="path84" />
<path
   d="m 2236.52,3064.79 c 0.11,-55.02 5.47,-56.33 12.09,-56.32 6.62,0.02 12.42,-0.19 11.87,56.37 -0.54,56.34 -5.47,56.33 -12.09,56.31 -6.62,-0.01 -11.98,-0.02 -11.87,-56.36 z"
   fill="#c09752"
   fill-rule="nonzero"
   opacity="1"
   stroke="none"
   vectornator:layerName="Oval 32"
   id="path85" />
<path
   d="m 2345.59,3064.87 c 0.11,-55.01 5.48,-56.33 12.1,-56.31 6.62,0.01 12.42,-0.2 11.87,56.36 -0.55,56.35 -5.47,56.33 -12.09,56.32 -6.62,-0.02 -11.99,-0.03 -11.88,-56.37 z"
   fill="#c09752"
   fill-rule="nonzero"
   opacity="1"
   stroke="none"
   vectornator:layerName="Oval 33"
   id="path86" />
<path
   d="m 2454.67,3064.96 c 0.11,-55.02 5.48,-56.33 12.09,-56.32 6.62,0.02 12.43,-0.19 11.88,56.37 -0.55,56.34 -5.48,56.33 -12.1,56.32 -6.61,-0.02 -11.98,-0.03 -11.87,-56.37 z"
   fill="#c09752"
   fill-rule="nonzero"
   opacity="1"
   stroke="none"
   vectornator:layerName="Oval 34"
   id="path87" />
<path
   d="m 2563.75,3065.04 c 0.11,-55.01 5.47,-56.33 12.09,-56.31 6.62,0.01 12.42,-0.19 11.87,56.37 -0.54,56.34 -5.47,56.33 -12.09,56.31 -6.62,-0.01 -11.98,-0.03 -11.87,-56.37 z"
   fill="#c09752"
   fill-rule="nonzero"
   opacity="1"
   stroke="none"
   vectornator:layerName="Oval 35"
   id="path88" />
<path
   d="m 2689.26,3060.31 c -29.94,-46.16 -26.15,-50.19 -20.6,-53.79 5.55,-3.6 10.3,-6.94 40.71,40.75 30.29,47.51 26.16,50.19 20.61,53.79 -5.56,3.6 -10.06,6.52 -40.72,-40.75 z"
   fill="#c09752"
   fill-rule="nonzero"
   opacity="1"
   stroke="none"
   vectornator:layerName="Oval 36"
   id="path89" />
<path
   d="m 2760.37,2950.36 c -48.16,-26.6 -46.73,-31.93 -43.53,-37.72 3.2,-5.8 5.82,-10.98 55.12,16.74 49.11,27.62 46.72,31.94 43.52,37.73 -3.2,5.79 -5.79,10.49 -55.11,-16.75 z"
   fill="#c09752"
   fill-rule="nonzero"
   opacity="1"
   stroke="none"
   vectornator:layerName="Oval 37"
   id="path90" />
<path
   d="m 2812.53,2854.57 c -48.16,-26.6 -46.72,-31.94 -43.52,-37.73 3.2,-5.79 5.81,-10.98 55.11,16.75 49.11,27.62 46.73,31.93 43.53,37.73 -3.21,5.79 -5.8,10.48 -55.12,-16.75 z"
   fill="#c09752"
   fill-rule="nonzero"
   opacity="1"
   stroke="none"
   vectornator:layerName="Oval 38"
   id="path91" />
<path
   d="m 2864.69,2758.77 c -48.16,-26.6 -46.72,-31.93 -43.52,-37.73 3.2,-5.79 5.81,-10.97 55.12,16.75 49.1,27.62 46.72,31.94 43.52,37.73 -3.2,5.79 -5.8,10.49 -55.12,-16.75 z"
   fill="#c09752"
   fill-rule="nonzero"
   opacity="1"
   stroke="none"
   vectornator:layerName="Oval 39"
   id="path92" />
<path
   d="m 2916.86,2662.98 c -48.16,-26.6 -46.73,-31.94 -43.53,-37.73 3.2,-5.79 5.82,-10.98 55.12,16.75 49.11,27.62 46.72,31.93 43.52,37.73 -3.2,5.79 -5.79,10.48 -55.11,-16.75 z"
   fill="#c09752"
   fill-rule="nonzero"
   opacity="1"
   stroke="none"
   vectornator:layerName="Oval 40"
   id="path93" />
<path
   d="m 2969.02,2567.18 c -48.16,-26.6 -46.72,-31.93 -43.52,-37.73 3.2,-5.79 5.81,-10.97 55.11,16.75 49.11,27.62 46.73,31.94 43.53,37.73 -3.21,5.79 -5.8,10.49 -55.12,-16.75 z"
   fill="#c09752"
   fill-rule="nonzero"
   opacity="1"
   stroke="none"
   vectornator:layerName="Oval 41"
   id="path94" />
<path
   d="m 3021.18,2471.39 c -48.16,-26.6 -46.72,-31.94 -43.52,-37.73 3.2,-5.79 5.82,-10.98 55.12,16.75 49.1,27.62 46.72,31.93 43.52,37.73 -3.2,5.79 -5.8,10.48 -55.12,-16.75 z"
   fill="#c09752"
   fill-rule="nonzero"
   opacity="1"
   stroke="none"
   vectornator:layerName="Oval 42"
   id="path95" />
<path
   d="m 3073.35,2375.59 c -48.16,-26.6 -46.73,-31.93 -43.53,-37.73 3.2,-5.79 5.82,-10.97 55.12,16.75 49.11,27.62 46.72,31.94 43.52,37.73 -3.2,5.79 -5.79,10.49 -55.11,-16.75 z"
   fill="#c09752"
   fill-rule="nonzero"
   opacity="1"
   stroke="none"
   vectornator:layerName="Oval 43"
   id="path96" />
<path
   d="m 3125.51,2279.8 c -48.16,-26.6 -46.72,-31.94 -43.52,-37.73 3.2,-5.79 5.81,-10.98 55.11,16.75 49.11,27.62 46.73,31.93 43.53,37.73 -3.2,5.79 -5.8,10.48 -55.12,-16.75 z"
   fill="#c09752"
   fill-rule="nonzero"
   opacity="1"
   stroke="none"
   vectornator:layerName="Oval 44"
   id="path97" />
<path
   d="m 3177.67,2184 c -48.16,-26.6 -46.72,-31.93 -43.52,-37.73 3.2,-5.79 5.82,-10.97 55.12,16.75 49.1,27.62 46.72,31.94 43.52,37.73 -3.2,5.79 -5.8,10.49 -55.12,-16.75 z"
   fill="#c09752"
   fill-rule="nonzero"
   opacity="1"
   stroke="none"
   vectornator:layerName="Oval 45"
   id="path98" />
<path
   d="m 3229.84,2088.21 c -48.16,-26.6 -46.73,-31.94 -43.53,-37.73 3.21,-5.79 5.82,-10.98 55.12,16.75 49.11,27.62 46.72,31.93 43.52,37.72 -3.2,5.8 -5.79,10.49 -55.11,-16.74 z"
   fill="#c09752"
   fill-rule="nonzero"
   opacity="1"
   stroke="none"
   vectornator:layerName="Oval 46"
   id="path99" />
<path
   d="m 3282,1992.41 c -48.16,-26.6 -46.72,-31.93 -43.52,-37.73 3.2,-5.79 5.81,-10.98 55.11,16.75 49.11,27.62 46.73,31.94 43.53,37.73 -3.2,5.79 -5.8,10.49 -55.12,-16.75 z"
   fill="#c09752"
   fill-rule="nonzero"
   opacity="1"
   stroke="none"
   vectornator:layerName="Oval 47"
   id="path100" />
<path
   d="m 3334.16,1896.61 c -48.16,-26.59 -46.72,-31.93 -43.52,-37.72 3.2,-5.79 5.82,-10.98 55.12,16.75 49.11,27.62 46.72,31.93 43.52,37.72 -3.2,5.8 -5.8,10.49 -55.12,-16.75 z"
   fill="#c09752"
   fill-rule="nonzero"
   opacity="1"
   stroke="none"
   vectornator:layerName="Oval 48"
   id="path101" />
<path
   d="m 3386.33,1800.82 c -48.16,-26.6 -46.73,-31.93 -43.53,-37.73 3.21,-5.79 5.82,-10.98 55.12,16.75 49.11,27.62 46.72,31.94 43.52,37.73 -3.2,5.79 -5.79,10.49 -55.11,-16.75 z"
   fill="#c09752"
   fill-rule="nonzero"
   opacity="1"
   stroke="none"
   vectornator:layerName="Oval 49"
   id="path102" />
<path
   d="m 3431.97,1717 c -48.16,-26.6 -46.72,-31.93 -43.52,-37.73 3.2,-5.79 5.81,-10.98 55.11,16.75 49.11,27.62 46.73,31.94 43.53,37.73 -3.2,5.79 -5.8,10.49 -55.12,-16.75 z"
   fill="#c09752"
   fill-rule="nonzero"
   opacity="1"
   stroke="none"
   vectornator:layerName="Oval 50"
   id="path103" />
<path
   d="m 3484.14,1621.2 c -48.17,-26.59 -46.73,-31.93 -43.53,-37.72 3.2,-5.79 5.82,-10.98 55.12,16.75 49.11,27.62 46.72,31.93 43.52,37.72 -3.2,5.8 -5.8,10.49 -55.11,-16.75 z"
   fill="#c09752"
   fill-rule="nonzero"
   opacity="1"
   stroke="none"
   vectornator:layerName="Oval 51"
   id="path104" />
<path
   d="m 3536.3,1525.41 c -48.16,-26.6 -46.73,-31.93 -43.53,-37.73 3.21,-5.79 5.82,-10.98 55.12,16.75 49.11,27.62 46.73,31.94 43.52,37.73 -3.2,5.79 -5.79,10.49 -55.11,-16.75 z"
   fill="#c09752"
   fill-rule="nonzero"
   opacity="1"
   stroke="none"
   vectornator:layerName="Oval 52"
   id="path105" />
<path
   d="m 3588.46,1429.61 c -48.16,-26.59 -46.72,-31.93 -43.52,-37.72 3.2,-5.8 5.81,-10.98 55.11,16.75 49.11,27.62 46.73,31.93 43.53,37.72 -3.2,5.8 -5.8,10.49 -55.12,-16.75 z"
   fill="#c09752"
   fill-rule="nonzero"
   opacity="1"
   stroke="none"
   vectornator:layerName="Oval 53"
   id="path106" />
</g>
</g>
</g>
<g
   id="Layer-2"
   vectornator:layerName="Layer 2"
   visibility="hidden"
   style="display:none"
   inkscape:label="målflagga">
<g
   opacity="1"
   vectornator:layerName="Finish Flag"
   id="g110">
<path
   d="m 1205.45,3369.24 c 0,92.86 -17.04,184.93 -50.28,271.64 l -65.4,170.58 -66.64,-165.09 c -36.428,-90.26 -55.155,-186.69 -55.155,-284.02 V 897.474 c 0,0 46.225,-210.385 122.065,-210.385 75.83,0 115.41,210.385 115.41,210.385 z"
   fill="#000000"
   fill-rule="nonzero"
   opacity="1"
   stroke="none"
   vectornator:layerName="path"
   id="path107" />
<path
   d="m 1094.63,508.372 c -71.04,0 -128.618,57.582 -128.618,128.614 0,71.032 57.578,128.615 128.618,128.615 71.03,0 128.61,-57.583 128.61,-128.615 0,-71.032 -57.58,-128.614 -128.61,-128.614 z"
   fill="#000000"
   fill-rule="nonzero"
   opacity="1"
   stroke="none"
   vectornator:layerName="path"
   id="path108" />
<path
   d="M 967.975,907.186 H 3310.73 c 23.89,0 43.26,19.366 43.26,43.255 V 2516.55 c 0,23.89 -19.37,43.26 -43.26,43.26 H 967.975 Z"
   fill="#ffffff"
   fill-rule="nonzero"
   opacity="1"
   stroke="none"
   vectornator:layerName="path"
   id="path109" />
<path
   d="m 1365.64,907.186 h 397.67 v 413.154 h -397.67 z m 397.67,413.154 h 397.67 V 1733.5 H 1763.31 Z M 2956.32,907.186 h 354.42 c 23.88,0 43.25,19.363 43.25,43.248 v 369.906 h -397.67 z m -795.34,0 h 397.67 v 413.154 h -397.67 z m 397.67,413.154 h 397.67 V 1733.5 H 2558.65 Z M 1365.64,1733.5 h 397.67 v 413.15 h -397.67 z m 397.67,413.15 h 397.67 v 413.16 H 1763.31 Z M 967.975,1320.34 H 1365.64 V 1733.5 H 967.975 Z m 0,826.31 h 397.665 v 413.16 H 967.975 Z M 2956.32,1733.5 h 397.67 v 413.15 h -397.67 z m -795.34,0 h 397.67 v 413.15 h -397.67 z m 397.67,413.15 h 397.67 v 413.16 h -397.67 z"
   fill="#000000"
   fill-rule="nonzero"
   opacity="1"
   stroke="none"
   vectornator:layerName="path"
   id="path110" />
</g>
</g>
<g
   id="Layer-2-copy"
   vectornator:layerName="Layer 2 copy"
   visibility="hidden"
   style="display:none"
   inkscape:label="vitflagga">
<g
   opacity="1"
   vectornator:layerName="Finish Flag"
   id="g113">
<path
   d="m 1205.45,3369.24 c 0,92.86 -17.04,184.93 -50.28,271.64 l -65.4,170.58 -66.64,-165.09 c -36.428,-90.26 -55.155,-186.69 -55.155,-284.02 V 897.474 c 0,0 46.225,-210.385 122.065,-210.385 75.83,0 115.41,210.385 115.41,210.385 z"
   fill="#000000"
   fill-rule="nonzero"
   opacity="1"
   stroke="none"
   vectornator:layerName="path"
   id="path111" />
<path
   d="m 1094.63,508.372 c -71.04,0 -128.618,57.582 -128.618,128.614 0,71.032 57.578,128.615 128.618,128.615 71.03,0 128.61,-57.583 128.61,-128.615 0,-71.032 -57.58,-128.614 -128.61,-128.614 z"
   fill="#000000"
   fill-rule="nonzero"
   opacity="1"
   stroke="none"
   vectornator:layerName="path"
   id="path112" />
<path
   d="M 967.975,907.186 H 3314.31 c 21.92,0 39.68,17.762 39.68,39.674 v 1573.28 c 0,21.91 -17.76,39.67 -39.68,39.67 H 967.975 Z"
   fill="#ffffff"
   fill-rule="nonzero"
   opacity="1"
   stroke="none"
   vectornator:layerName="path"
   id="path113" />
</g>
</g>
<g
   id="Layer-2-copy_2"
   vectornator:layerName="Layer 2 copy"
   visibility="hidden"
   style="display:none"
   inkscape:label="startflagga">
<g
   opacity="1"
   vectornator:layerName="Finish Flag"
   id="g122">
<path
   d="m 1157.24,3359.02 c 0,92.86 -17.04,184.93 -50.28,271.63 l -65.4,170.58 -66.634,-165.09 c -36.432,-90.26 -55.159,-186.68 -55.159,-284.02 V 887.249 c 0,0 48.373,-201.58 124.203,-201.58 75.84,0 113.27,201.58 113.27,201.58 z"
   fill="#000000"
   fill-rule="nonzero"
   opacity="1"
   stroke="none"
   vectornator:layerName="path"
   id="path114" />
<path
   d="m 1046.42,518.77 c -71.033,0 -128.616,57.582 -128.616,128.614 0,71.032 57.583,128.615 128.616,128.615 71.03,0 128.61,-57.583 128.61,-128.615 0,-71.032 -57.58,-128.614 -128.61,-128.614 z"
   fill="#000000"
   fill-rule="nonzero"
   opacity="1"
   stroke="none"
   vectornator:layerName="path"
   id="path115" />
<path
   d="M 919.767,909.514 H 3335.12 c 37.05,0 67.08,30.031 67.08,67.075 V 2482.51 c 0,37.04 -30.03,67.07 -67.08,67.07 H 919.767 Z"
   fill="url(#RadialGradient)"
   fill-rule="nonzero"
   opacity="1"
   stroke="none"
   vectornator:layerName="path"
   id="path116" />
<g
   fill="#000000"
   opacity="1"
   stroke="none"
   vectornator:layerName="Text 1"
   id="g121">
<path
   d="m 1474.31,1523.36 3.22,132.42 h -12.01 c -5.67,-33.2 -19.58,-59.91 -41.75,-80.13 -22.17,-20.21 -46.14,-30.32 -71.92,-30.32 -19.93,0 -35.7,5.32 -47.32,15.97 -11.62,10.64 -17.43,22.9 -17.43,36.77 0,8.79 2.05,16.6 6.15,23.43 5.67,9.18 14.75,18.27 27.25,27.25 9.18,6.45 30.37,17.87 63.57,34.28 46.49,22.85 77.83,44.43 94.05,64.74 16.01,20.32 24.02,43.56 24.02,69.73 0,33.2 -12.94,61.77 -38.82,85.69 -25.88,23.93 -58.74,35.89 -98.58,35.89 -12.5,0 -24.32,-1.27 -35.45,-3.81 -11.14,-2.54 -25.1,-7.32 -41.9,-14.35 -9.37,-3.91 -17.09,-5.86 -23.14,-5.86 -5.08,0 -10.45,1.95 -16.12,5.86 -5.66,3.9 -10.25,9.86 -13.76,17.87 h -10.84 v -150 h 10.84 c 8.59,42.19 25.14,74.36 49.65,96.53 24.52,22.17 50.93,33.25 79.25,33.25 21.88,0 39.31,-5.95 52.3,-17.87 12.98,-11.91 19.48,-25.78 19.48,-41.6 0,-9.37 -2.49,-18.46 -7.47,-27.24 -4.98,-8.79 -12.55,-17.14 -22.71,-25.05 -10.15,-7.91 -28.12,-18.22 -53.9,-30.91 -36.14,-17.78 -62.11,-32.91 -77.93,-45.41 -15.82,-12.5 -27.98,-26.47 -36.48,-41.9 -8.49,-15.43 -12.74,-32.42 -12.74,-50.97 0,-31.64 11.62,-58.6 34.86,-80.86 23.24,-22.27 52.54,-33.4 87.89,-33.4 12.89,0 25.39,1.56 37.5,4.69 9.18,2.34 20.36,6.69 33.55,13.03 13.18,6.35 22.41,9.53 27.68,9.53 5.08,0 9.08,-1.57 12.01,-4.69 2.93,-3.13 5.67,-10.65 8.21,-22.56 z"
   id="path117" />
<path
   d="m 1904.68,1532.44 v 107.52 h -10.55 c -6.25,-24.8 -13.18,-42.63 -20.8,-53.47 -7.62,-10.84 -18.07,-19.48 -31.35,-25.92 -7.42,-3.52 -20.41,-5.28 -38.96,-5.28 h -29.59 v 306.45 c 0,20.31 1.12,33.01 3.37,38.08 2.24,5.08 6.64,9.53 13.18,13.33 6.54,3.81 15.48,5.72 26.81,5.72 h 13.18 v 10.84 h -208.01 v -10.84 h 13.19 c 11.52,0 20.8,-2.05 27.83,-6.16 5.08,-2.73 9.08,-7.42 12.01,-14.06 2.15,-4.69 3.22,-16.99 3.22,-36.91 v -306.45 h -28.71 c -26.76,0 -46.19,5.67 -58.3,16.99 -16.99,15.83 -27.73,38.38 -32.23,67.68 h -11.13 v -107.52 z"
   id="path118" />
<path
   d="M 2131.44,1816.62 H 1991.1 l -16.7,38.67 c -5.46,12.89 -8.2,23.54 -8.2,31.94 0,11.13 4.49,19.33 13.48,24.61 5.27,3.12 18.26,5.46 38.96,7.03 v 10.84 h -132.13 v -10.84 c 14.26,-2.15 25.98,-8.06 35.16,-17.73 9.18,-9.67 20.51,-29.64 33.98,-59.91 l 142.09,-316.99 h 5.57 l 143.26,325.78 c 13.67,30.86 24.9,50.29 33.69,58.3 6.64,6.05 16.02,9.57 28.13,10.55 v 10.84 H 2116.2 v -10.84 h 7.91 c 15.43,0 26.27,-2.15 32.52,-6.45 4.3,-3.12 6.45,-7.62 6.45,-13.47 0,-3.52 -0.59,-7.13 -1.76,-10.84 -0.39,-1.76 -3.32,-9.09 -8.79,-21.98 z m -9.97,-21.68 -59.18,-136.82 -60.93,136.82 z"
   id="path119" />
<path
   d="m 2474.5,1748.65 v 111.33 c 0,21.48 1.32,35.01 3.96,40.58 2.63,5.56 7.27,10.01 13.91,13.33 6.64,3.32 19.05,4.98 37.21,4.98 v 10.84 h -203.32 v -10.84 c 18.36,0 30.81,-1.71 37.35,-5.13 6.55,-3.42 11.14,-7.86 13.77,-13.33 2.64,-5.47 3.96,-18.95 3.96,-40.43 v -257.81 c 0,-21.49 -1.32,-35.01 -3.96,-40.58 -2.63,-5.56 -7.27,-10.01 -13.91,-13.33 -6.64,-3.32 -19.05,-4.98 -37.21,-4.98 v -10.84 h 184.57 c 48.05,0 83.2,3.32 105.47,9.96 22.26,6.64 40.43,18.9 54.49,36.77 14.06,17.87 21.09,38.82 21.09,62.84 0,29.3 -10.54,53.52 -31.64,72.66 -13.47,12.11 -32.32,21.19 -56.54,27.24 l 95.51,134.48 c 12.5,17.38 21.39,28.22 26.66,32.52 8.01,6.05 17.28,9.37 27.83,9.96 v 10.84 h -125.1 l -128.02,-181.06 z m 0,-194.82 v 174.02 h 16.7 c 27.15,0 47.46,-2.49 60.94,-7.47 13.48,-4.98 24.07,-13.96 31.79,-26.95 7.71,-12.99 11.57,-29.93 11.57,-50.83 0,-30.28 -7.08,-52.64 -21.24,-67.09 -14.16,-14.46 -36.97,-21.68 -68.41,-21.68 z"
   id="path120" />
<path
   d="m 3105.85,1532.44 v 107.52 h -10.55 c -6.25,-24.8 -13.18,-42.63 -20.8,-53.47 -7.62,-10.84 -18.06,-19.48 -31.35,-25.92 -7.42,-3.52 -20.41,-5.28 -38.96,-5.28 h -29.59 v 306.45 c 0,20.31 1.12,33.01 3.37,38.08 2.24,5.08 6.64,9.53 13.18,13.33 6.55,3.81 15.48,5.72 26.81,5.72 h 13.18 v 10.84 h -208.01 v -10.84 h 13.19 c 11.52,0 20.8,-2.05 27.83,-6.16 5.08,-2.73 9.08,-7.42 12.01,-14.06 2.15,-4.69 3.22,-16.99 3.22,-36.91 v -306.45 h -28.71 c -26.75,0 -46.19,5.67 -58.3,16.99 -16.99,15.83 -27.73,38.38 -32.22,67.68 h -11.14 v -107.52 z"
   id="path121" />
</g>
</g>
</g>
<g
   id="Layer-3"
   vectornator:layerName="Layer 3"
   visibility="hidden"
   style="display:none"
   inkscape:label="ipin">
<path
   d="m 1172.2,1550.36 c 0,-545.54 442.25,-987.795 987.8,-987.795 545.55,0 987.8,442.255 987.8,987.795 0,545.55 -987.8,2206.9 -987.8,2206.9 0,0 -987.8,-1661.35 -987.8,-2206.9 z"
   fill="#000000"
   fill-rule="nonzero"
   opacity="1"
   stroke="none"
   vectornator:layerName="Oval 1"
   id="path122" />
<path
   d="m 2164.64,1275.59 c 21.16,0 39.06,7.41 53.71,22.22 14.65,14.81 21.97,32.63 21.97,53.47 0,20.83 -7.4,38.57 -22.21,53.22 -14.82,14.65 -32.64,21.97 -53.47,21.97 -20.83,0 -38.58,-7.32 -53.22,-21.97 -14.65,-14.65 -21.98,-32.39 -21.98,-53.22 0,-20.84 7.33,-38.66 21.98,-53.47 14.64,-14.81 32.39,-22.22 53.22,-22.22 z m 68.36,221.2 v 361.81 c 0,32.23 3.74,52.82 11.23,61.77 7.49,8.95 22.13,14.08 43.94,15.38 v 17.58 h -246.58 v -17.58 c 20.18,-0.65 35.16,-6.51 44.92,-17.58 6.51,-7.48 9.77,-27.34 9.77,-59.57 V 1592 c 0,-32.23 -3.74,-52.82 -11.23,-61.77 -7.49,-8.95 -21.97,-14.08 -43.46,-15.38 v -18.06 z"
   fill="#ffffff"
   opacity="1"
   stroke="none"
   vectornator:layerName="Text 1"
   id="path123" />
</g>
<g
   id="Layer-3-copy"
   vectornator:layerName="Layer 3 copy"
   visibility="hidden"
   style="display:none"
   inkscape:label="frågepin">
<path
   d="m 1172.2,1551.36 c 0,-545.54 442.25,-987.795 987.8,-987.795 545.55,0 987.8,442.255 987.8,987.795 0,545.55 -987.8,2206.9 -987.8,2206.9 0,0 -987.8,-1661.35 -987.8,-2206.9 z"
   fill="#000000"
   fill-rule="nonzero"
   opacity="1"
   stroke="none"
   vectornator:layerName="Oval 1"
   id="path124" />
<path
   d="m 2158.15,1738.51 h -20.02 c -0.65,-36.13 1.06,-63.15 5.13,-81.06 4.07,-17.9 14.65,-42.56 31.74,-73.97 17.09,-31.41 28.32,-56.64 33.69,-75.68 5.37,-19.05 8.06,-42.57 8.06,-70.56 0,-43.3 -8.47,-75.2 -25.39,-95.7 -16.93,-20.51 -36.95,-30.77 -60.06,-30.77 -17.58,0 -32.39,4.72 -44.43,14.16 -9.12,7.17 -13.68,14.65 -13.68,22.47 0,5.2 3.1,13.34 9.28,24.41 14,25.06 21,46.39 21,63.96 0,15.95 -5.46,29.3 -16.36,40.04 -10.91,10.75 -24.5,16.12 -40.77,16.12 -18.23,0 -33.53,-6.43 -45.9,-19.29 -12.37,-12.86 -18.56,-29.87 -18.56,-51.03 0,-38.41 16.61,-72.1 49.81,-101.07 33.2,-28.97 79.59,-43.46 139.16,-43.46 63.15,0 111.25,15.06 144.29,45.17 33.04,30.11 49.56,66.49 49.56,109.13 0,30.92 -8.47,59.49 -25.39,85.69 -16.93,26.21 -49.65,55.26 -98.15,87.16 -32.55,21.49 -53.95,40.61 -64.21,57.37 -10.25,16.77 -16.52,42.4 -18.8,76.91 z m -5.37,71.29 c 21.81,0 40.37,7.65 55.67,22.95 15.3,15.3 22.95,33.85 22.95,55.66 0,21.81 -7.65,40.45 -22.95,55.91 -15.3,15.46 -33.86,23.19 -55.67,23.19 -21.81,0 -40.36,-7.73 -55.66,-23.19 -15.3,-15.46 -22.95,-34.1 -22.95,-55.91 0,-21.81 7.65,-40.36 22.95,-55.66 15.3,-15.3 33.85,-22.95 55.66,-22.95 z"
   fill="#ffffff"
   opacity="1"
   stroke="none"
   vectornator:layerName="Text 1"
   id="path125" />
</g>

<use
   xlink:href="#Recycling"
   style="fill:#026516;stroke:#000000;fill-opacity:1"
   id="use1"
   transform="matrix(42.94751,0,0,42.94751,582.83835,-225.69317)" /></svg>
